<?xml version="1.0" encoding="UTF-8" standalone="no"?>
<!DOCTYPE svg PUBLIC "-//W3C//DTD SVG 1.1//EN" "http://www.w3.org/Graphics/SVG/1.1/DTD/svg11.dtd">
<svg width="100%" height="100%" viewBox="0 0 2339 2077" version="1.1" xmlns="http://www.w3.org/2000/svg" xmlns:xlink="http://www.w3.org/1999/xlink" xml:space="preserve" xmlns:serif="http://www.serif.com/" style="fill-rule:evenodd;clip-rule:evenodd;stroke-linecap:round;stroke-linejoin:round;stroke-miterlimit:1.5;">
    <g transform="matrix(1,0,0,1,-1311.143644,-546.432788)">
        <g transform="matrix(1,0,0,1,-15.022809,-205.047611)">
            <path d="M2107.516,1065.852C2171.239,733.996 2421.275,694.923 2735.28,842.305C2825.194,902.023 2855.291,918.813 2877.852,940.953C2914.538,976.954 2921.322,1005.155 2910.448,1028.56C2946.322,972.356 3092.023,898.983 3187.664,943.092C3514.548,1093.848 3611.865,1597.145 3466.996,1822.127C3604.71,1898.554 3669.086,2013.021 3652.979,2148.276C3623.903,2392.43 3505.812,2574.868 3292.31,2658.292C3191.496,2500.709 3077.106,2394.714 2917.1,2462.058C2790.001,2668.331 2650.236,2796.075 2493.573,2819.047C2464.275,2791.919 2432.74,2769.264 2391.595,2765.832C2040.701,2846.961 1868.103,2727.033 1795.135,2494.755C2036.999,2457.546 2155.646,2412.792 2107.778,2357.844C1622.293,2440.067 1385.561,2243.201 1384.931,1781.441C1270.977,1537.463 1356.237,1405.946 1608.88,1368.919C1627.151,1276.531 1656.397,1184.142 1668.748,1091.754C1775.059,811.064 1936.166,826.201 2107.516,1065.852Z" style="fill:rgb(239,196,177);"/>
            <path d="M2583.089,1393.165C2583.321,1393.051 2583.21,1392.587 2583.443,1392.473C2583.537,1392.427 2608.11,1402.022 2645.162,1397.934C2647.457,1397.681 2673.373,1395.548 2690.451,1384.898C2690.9,1384.617 2697.399,1381.077 2699.565,1376.827C2700.686,1374.629 2699.707,1373.863 2699.051,1372.514C2698.758,1371.911 2697.906,1360.71 2689.046,1349.723C2688.143,1348.603 2683.919,1343.365 2675.831,1337.534C2657.005,1323.962 2630.206,1317.764 2617.968,1314.978C2603.015,1311.573 2591.072,1309.924 2579.77,1308.106L2556.045,1304.359C2520.611,1298.742 2488.061,1303.746 2482.703,1304.227C2467.265,1305.613 2451.73,1308.031 2431.217,1312.607C2418.81,1315.374 2402.912,1319.443 2379.427,1327.547C2327.819,1345.357 2293.562,1367.003 2277.801,1376.874C2255.877,1390.604 2218.785,1415.699 2167.278,1462C2137.17,1489.065 2114.341,1512.72 2114.013,1512.956C2113.864,1513.064 2113.613,1512.89 2113.465,1512.998C2113.549,1512.835 2113.34,1512.612 2113.425,1512.449C2113.425,1512.449 2117.768,1506.636 2123.223,1499.536C2161.854,1449.259 2191.071,1418.501 2208.975,1400.527C2245.85,1363.509 2272.478,1343.851 2279.601,1338.556C2291.587,1329.645 2323.253,1306.529 2370.181,1284.929C2379.924,1280.445 2391.441,1275.965 2393.311,1275.237C2418.566,1265.413 2435.753,1261.116 2439.434,1260.158C2457.203,1255.531 2470.714,1253.237 2476.96,1252.22C2476.966,1252.22 2481.685,1251.599 2487.686,1251.013C2533.227,1246.563 2562.031,1252.341 2572.488,1253.978C2586.188,1256.122 2591.916,1256.858 2606.198,1259.774C2628.62,1264.352 2642.14,1268.502 2653.519,1272.618C2669.39,1278.359 2697.811,1290.303 2717.073,1311.829C2735.499,1332.422 2739.991,1353.637 2741.053,1367.52C2741.608,1374.768 2739.919,1381.084 2739.613,1382.226C2737.368,1390.623 2730.163,1407.534 2703.866,1416.036C2698.563,1417.751 2691.736,1418.73 2690.667,1418.884C2662.946,1422.861 2635.959,1415.79 2635.91,1415.778C2614.531,1410.756 2596.011,1402.419 2583.089,1393.165Z" style="fill:rgb(255,211,172);"/>
            <path d="M3042.696,1512.24C3042.926,1512.626 3043.26,1512.943 3043.49,1513.329C3043.49,1513.33 3044.997,1517.106 3046.801,1522.103C3054.508,1543.454 3057.511,1558.497 3058.538,1563.534C3065.976,1600.026 3065.254,1629.57 3064.133,1646.47C3063.751,1652.225 3062.735,1660.089 3062.583,1661.27C3058.524,1692.698 3050.712,1714.802 3049.951,1717.064C3042.678,1738.677 3034.339,1755.716 3028.191,1767.122C3028.181,1767.14 3024.137,1774.504 3018.073,1783.912C3007.227,1800.739 2997.082,1813.104 2991.29,1819.903C2988.489,1823.19 2983.168,1828.746 2982.446,1829.5C2974.154,1838.157 2968.78,1842.955 2967.537,1844.065C2955.404,1854.899 2947.099,1860.936 2945.235,1862.291C2936.364,1868.74 2929.149,1873.348 2925.715,1875.516C2920.261,1878.96 2912.501,1883.236 2911.336,1883.879C2905.078,1887.327 2897.691,1891.278 2884.766,1896.86C2867.759,1904.205 2853.244,1908.951 2843.566,1911.851C2843.531,1911.861 2835.393,1914.242 2824.376,1916.751C2794.107,1923.643 2771.499,1924.944 2769.477,1925.09C2734.943,1927.586 2709.242,1924.953 2707.539,1924.804C2665.541,1921.126 2630.202,1911.869 2605.056,1903.764C2594.425,1900.337 2582.151,1895.539 2580.18,1894.769C2575.317,1892.868 2549.669,1882.842 2520.919,1867.429C2520.066,1866.971 2520.056,1866.987 2519.993,1866.931C2519.778,1866.74 2520.003,1866.614 2519.787,1866.422C2520.284,1866.508 2520.8,1866.451 2521.297,1866.538C2522.407,1866.731 2554.3,1877.973 2596.9,1885.226C2598.252,1885.456 2611.463,1887.674 2623.71,1889.185C2671.956,1895.134 2706.484,1891.855 2722.561,1890.315C2746.674,1888.005 2764.753,1884.078 2779.486,1880.506C2804.453,1874.453 2821.478,1867.501 2830.36,1863.989C2853.729,1854.75 2869.357,1845.531 2877.762,1840.677C2879.672,1839.573 2888.431,1834.514 2901.054,1825.906C2903.675,1824.119 2906.581,1822.195 2918.172,1813.43C2920.837,1811.414 2925.083,1808.265 2936.922,1798.12C2943.703,1792.308 2947.56,1788.575 2954.995,1781.355C2974.118,1762.782 2985.207,1746.854 2989.739,1740.664C3005.088,1719.703 3013.817,1701.753 3019.444,1689.602C3029.449,1667.996 3034.382,1650.175 3037.645,1637.342C3048.036,1596.479 3046.84,1562.895 3045.906,1545.541C3044.923,1527.279 3042.551,1513.847 3042.564,1513.58C3042.585,1513.132 3042.675,1512.688 3042.696,1512.24Z" style="fill:rgb(255,211,172);"/>
            <path d="M2636.794,1256.052C2648.285,1252.31 2660.662,1249.936 2662.765,1249.532C2690.102,1244.289 2713.529,1244.62 2726.356,1245.2C2729.857,1245.358 2736.75,1246.099 2737.652,1246.196C2769.655,1249.635 2793.693,1257.393 2804.342,1261.143C2805.034,1261.387 2820.691,1267.1 2838.916,1277.448C2843.529,1280.067 2852.253,1285.901 2860.142,1292.072C2862.628,1294.017 2865.184,1296.11 2867.581,1298.17C2869.516,1299.833 2875.448,1305.795 2880.979,1312.275C2892.656,1325.958 2898.555,1336.73 2901.259,1341.807C2907.473,1353.475 2911.207,1363.863 2913.52,1371.713C2913.608,1372.013 2915.836,1379.75 2917.285,1390.127C2920.549,1413.51 2917.367,1430.465 2916.154,1436.517C2907.707,1478.679 2883.806,1497.32 2846.979,1503.819C2840.429,1504.975 2829.216,1506.667 2804.826,1507.103C2791.858,1507.335 2783.746,1506.993 2775.546,1506.956C2760.57,1506.888 2750.149,1506.503 2748.905,1506.565C2742.973,1506.86 2738.334,1508.108 2737.438,1508.349C2729.895,1510.377 2723.734,1512.82 2722.569,1513.282C2708.77,1518.752 2688.792,1527.918 2671.62,1533.451C2654.028,1539.12 2640.475,1540.887 2629.145,1541.062C2628.741,1541.068 2621.585,1540.25 2613.257,1537.951C2602.469,1534.972 2588.311,1530.184 2566.42,1507.634C2564.22,1505.367 2559.142,1499.976 2557.994,1498.463C2539.465,1474.04 2522.944,1445.801 2503.406,1429.416C2501.511,1427.826 2500.314,1425.573 2491.929,1428.324C2484.48,1430.767 2476.077,1435.312 2467.995,1432.165C2467.941,1432.144 2467.871,1432.144 2467.834,1432.1C2467.652,1431.886 2467.722,1431.844 2467.544,1431.633C2467.763,1431.56 2467.96,1431.429 2468.18,1431.356C2468.534,1431.237 2471.935,1432.12 2477.644,1428.719C2485.933,1423.782 2494.093,1412.753 2506.806,1416.085C2508.728,1416.589 2516.028,1419.356 2525.734,1424.849C2546.818,1436.781 2567.928,1454.754 2587.402,1468.296C2588.726,1469.217 2592.377,1472.463 2598.224,1476.749C2614.229,1488.478 2620.392,1488.203 2622.445,1488.364C2627.487,1488.76 2631.692,1488.339 2631.774,1488.346C2633.499,1488.507 2642.334,1490.776 2661.274,1488.088C2679.169,1485.549 2690.471,1481.484 2717.789,1475.213C2718.794,1474.982 2725.085,1473.439 2735.639,1471.968C2743.662,1470.85 2748.726,1471.051 2749.382,1471.036C2754.272,1470.924 2774.389,1470.144 2778.577,1469.808C2803.142,1467.838 2815.217,1465.869 2825.165,1463.688C2853.918,1457.383 2858.21,1449.297 2860.36,1443.682C2862.452,1438.219 2863.872,1429.368 2863.507,1419.205C2863.346,1414.716 2863.062,1403.858 2857.779,1389.418C2856.97,1387.206 2853.94,1376.694 2844.871,1363.33C2842.418,1359.716 2837.477,1352.036 2826.84,1341.66C2826.072,1340.911 2820.328,1333.838 2808.611,1324.104C2806.972,1322.743 2798.252,1314.457 2783.759,1304.945C2780.702,1302.939 2757.839,1286.097 2721.478,1273.304C2714.188,1270.738 2681.771,1257.645 2638.534,1256.856C2638.404,1256.854 2636.914,1256.826 2636.907,1256.821C2636.706,1256.657 2636.994,1256.216 2636.794,1256.052Z" style="fill:rgb(255,211,172);"/>
            <path d="M2624.521,1754.227C2624.044,1754.042 2623.544,1753.923 2623.067,1753.737C2622.731,1753.607 2613.217,1747.592 2612.363,1747.053C2608.052,1744.327 2587.739,1731.665 2560.436,1711.658C2534.883,1692.933 2520.656,1680.558 2517.784,1678.107C2496.741,1660.143 2485.23,1648.418 2481.725,1644.897C2465.817,1628.917 2457.221,1618.734 2455.211,1616.353C2442.374,1601.146 2432.413,1587.553 2427.949,1580.928C2423.079,1573.701 2419.641,1568.142 2418.441,1566.203C2416.243,1562.651 2412.398,1555.671 2411.889,1554.746C2411.754,1554.501 2408.738,1549.318 2403.391,1537.769C2402.698,1536.274 2399.695,1529.788 2395.524,1518.735C2393.584,1513.592 2387.379,1494.459 2384.69,1481.112C2380.612,1460.865 2379.823,1447.295 2379.651,1444.33C2379.014,1433.352 2378.985,1421.108 2379.627,1412.44C2381.467,1387.61 2386.212,1368.552 2389.047,1358.238C2390.105,1354.391 2392.324,1347.888 2392.629,1346.994C2393.362,1344.847 2397.316,1333.263 2403.066,1320.627C2403.188,1320.36 2403.294,1320.503 2403.549,1320.364L2403.811,1320.847C2401.807,1334.539 2400.732,1344.526 2400.35,1364.35C2399.844,1390.63 2403.293,1409.123 2404.454,1416.432C2406.297,1428.025 2408.378,1436.568 2411.388,1447.876C2414.963,1461.304 2418.359,1470.061 2420.603,1476.354C2425.597,1490.362 2430.108,1499.699 2432.692,1505.445C2433.267,1506.724 2435.142,1510.892 2440.233,1521.263C2440.771,1522.357 2441.443,1523.726 2447.165,1534.841C2447.771,1536.018 2449.129,1538.656 2454.995,1549.42C2455.758,1550.818 2457.973,1554.882 2464.868,1566.704C2473.755,1581.942 2481.116,1592.561 2488.162,1602.811C2493.525,1610.613 2501.886,1622.499 2518.649,1643.314C2519.958,1644.94 2529.993,1657.649 2550.505,1680.327C2567.284,1698.877 2584.247,1716.037 2607.526,1738.03C2616.57,1746.575 2623.628,1752.941 2623.648,1752.966C2623.958,1753.373 2624.211,1753.821 2624.521,1754.227Z" style="fill:rgb(255,211,172);"/>
            <path d="M2968.736,1512.731C2969.692,1551.051 2963.459,1578.85 2963.115,1580.541C2952.252,1634.072 2929.122,1671.207 2910.973,1694.381C2904.603,1702.514 2896.961,1710.56 2895.679,1711.91C2892.245,1715.526 2873.977,1734.998 2845.703,1753.924C2836.016,1760.409 2825.2,1766.369 2823.374,1767.376C2799.228,1780.682 2777.473,1788.901 2764.332,1793.475C2764.309,1793.483 2757.797,1795.678 2748.958,1798.234C2720.577,1806.441 2695.671,1810.551 2679.967,1812.742C2679.851,1812.759 2671.924,1813.753 2667.021,1814.127C2646.477,1815.692 2627.445,1812.588 2626.462,1812.446C2624.528,1812.166 2608.741,1809.867 2592.699,1805.754C2574.024,1800.966 2559.953,1796.378 2557.137,1795.46C2546.184,1791.889 2535.639,1788.233 2531.136,1786.665C2520.656,1783.017 2485.483,1769.556 2460.382,1760.176C2455.84,1758.479 2425.168,1746.158 2390.557,1734.097C2383.854,1731.762 2358.204,1722.141 2320.809,1711.448C2306.545,1707.37 2258.12,1692.271 2187.986,1681.494C2158.801,1677.009 2152.385,1676.038 2109.598,1671.2C2092.898,1669.312 2081.841,1667.987 2071.908,1666.245C2071.617,1666.194 2071.742,1666.048 2071.553,1665.825L2071.974,1665.471C2099.576,1665.323 2132.888,1661.293 2184.972,1660.404C2185.403,1660.397 2197.522,1660.281 2212.333,1660.578C2257.62,1661.486 2296.222,1665.304 2328.154,1669.628C2328.376,1669.658 2344.527,1671.981 2364.349,1675.633C2367.573,1676.227 2385.77,1679.579 2404.501,1683.802C2415.252,1686.226 2432.979,1690.756 2435.448,1691.387C2450.065,1695.122 2473.288,1701.324 2482.174,1703.932C2505.956,1710.91 2525.998,1717.004 2548.946,1723.597C2549.884,1723.867 2565.061,1728.556 2581.106,1732.979C2584.102,1733.805 2597.158,1737.689 2611.965,1741.141C2615.196,1741.894 2628.274,1745.359 2642.364,1747.308C2649.088,1748.237 2656.389,1749.475 2667.108,1748.931C2671.459,1748.711 2671.452,1748.671 2675.807,1748.458C2715.408,1746.515 2741.307,1740.332 2751.373,1738.138C2788.491,1730.049 2813.03,1718.609 2827.285,1711.521C2858.028,1696.235 2877.634,1679.292 2889.852,1667.766C2932.015,1627.99 2948.855,1582.835 2956.552,1559.322C2964.942,1533.695 2967.81,1512.814 2967.961,1512.676C2968.152,1512.501 2968.545,1512.906 2968.736,1512.731Z" style="fill:rgb(255,211,172);"/>
            <path d="M2534.005,1236.234C2533.52,1236.003 2532.996,1235.862 2532.512,1235.631C2531.92,1235.349 2510.741,1220.012 2481.855,1204.481C2460.055,1192.759 2409.158,1166.535 2349.265,1161.929C2336.103,1160.917 2306.385,1159.079 2272.207,1169.357C2260.521,1172.871 2234.941,1181.141 2208.079,1203.539C2201.809,1208.767 2183.538,1223.614 2166.28,1251.455C2165.184,1253.222 2159.541,1261.739 2153.351,1274.651C2152.273,1276.898 2148.571,1283.997 2144.161,1295.453C2143.874,1296.198 2141.108,1302.544 2137.968,1311.907C2137.398,1313.606 2135.176,1319.317 2132.374,1328.999C2131.953,1330.453 2127.451,1343.075 2123.839,1361.611C2123.405,1363.84 2120.258,1375.646 2118.049,1393.425C2117.742,1395.89 2115.761,1406.413 2114.703,1423.31C2114.579,1425.292 2112.059,1443.928 2113.143,1470.525C2113.235,1472.78 2112.982,1481.76 2114.039,1496.594C2114.091,1497.32 2114.099,1497.318 2114.087,1497.38C2114.05,1497.56 2113.878,1497.692 2113.841,1497.872C2113.607,1497.6 2113.27,1497.429 2113.036,1497.157C2112.722,1496.793 2109.462,1491.477 2109.157,1490.979C2104.438,1483.282 2101.131,1477.197 2099.777,1474.695C2099.766,1474.675 2097.262,1469.571 2094.294,1462.772C2088.169,1448.743 2083.992,1436.594 2081.199,1427.589C2081.096,1427.257 2077.258,1413.532 2074.327,1395.168C2074.321,1395.135 2072.083,1379.567 2071.828,1358.932C2071.828,1358.889 2071.693,1357.29 2072.143,1349.401C2072.298,1346.685 2073.171,1331.392 2075.893,1315.61C2076.374,1312.822 2077.878,1306.419 2078.065,1305.623C2080.051,1297.169 2081.387,1292.883 2081.727,1291.79C2084.153,1284.006 2086.446,1277.767 2088.012,1273.687C2088.013,1273.682 2094.257,1258.049 2102.323,1244.028C2113.657,1224.329 2123.646,1212.507 2124.85,1211.033C2144.374,1187.12 2163.912,1171.919 2177.522,1162.766C2186.462,1156.755 2196.133,1151.74 2197.803,1150.875C2238.208,1129.926 2273.652,1127.069 2288.043,1126.314C2331.433,1124.04 2366.101,1134.396 2381.485,1139.471C2444.983,1160.418 2493.532,1200.005 2514.411,1218.024C2515.897,1219.307 2523.901,1226.214 2532.644,1234.462C2533.071,1234.865 2533.074,1234.858 2533.105,1234.898C2533.596,1235.538 2533.512,1235.593 2534.005,1236.234Z" style="fill:rgb(255,211,172);"/>
            <path d="M2878.217,1203.563L2877.487,1203.828C2870.485,1189.962 2861.701,1172.882 2843.386,1145.857C2804.686,1088.751 2763.708,1056.625 2747.702,1043.958C2715.463,1018.445 2688.084,1004.172 2676.386,997.933C2637.945,977.431 2606.987,968.27 2598.613,965.488C2558.431,952.139 2527.758,948.351 2518.722,946.915C2500.77,944.061 2488.826,943.267 2481.126,942.557C2464.674,941.04 2454.043,940.984 2447.562,940.752C2435.887,940.334 2427.19,940.431 2412.325,940.926C2398.394,941.391 2389.683,942.331 2379.289,943.335C2343.806,946.762 2319.323,954.078 2310.889,956.333C2275.65,965.752 2251.817,977.859 2241.933,982.713C2209.696,998.544 2188.668,1015.175 2179.208,1022.495C2125.69,1063.909 2097.33,1111.315 2086.002,1130.223C2060.356,1173.029 2046.791,1213.032 2040.369,1233.324C2039.965,1234.6 2039.976,1234.603 2039.951,1234.65C2039.814,1234.904 2039.631,1234.7 2039.494,1234.956C2039.476,1234.774 2039.207,1234.681 2039.188,1234.498C2039.188,1234.498 2039.786,1227.337 2040.905,1217.994C2046.284,1173.071 2056.14,1138.923 2064.096,1116.043C2064.142,1115.91 2067.355,1106.787 2072.239,1095.175C2094.724,1041.717 2123.071,1004.519 2144.36,980.793C2144.616,980.508 2150.91,973.591 2159.719,965.063C2180.609,944.838 2199.398,931.113 2210.263,923.564C2215.1,920.202 2222.618,915.554 2223.707,914.88C2249.613,898.861 2272.643,888.594 2287.856,882.432C2288.055,882.352 2298.022,878.421 2311.581,874.083C2334.902,866.621 2355.604,862.11 2371.598,859.276C2375.866,858.52 2384.228,857.438 2385.328,857.296C2403.32,854.967 2414.879,854.416 2417.458,854.293C2433.215,853.541 2448.277,853.644 2455.599,854.005C2473.679,854.895 2487.612,856.575 2493.706,857.332C2497.234,857.771 2505.324,859.147 2506.332,859.319C2520.499,861.729 2531.523,864.225 2537.104,865.526C2537.234,865.556 2547.428,868.067 2560.66,872.111C2588.316,880.561 2610.822,889.972 2627.051,897.484C2627.317,897.607 2640.431,903.795 2657.045,913.251C2680.715,926.724 2699.133,939.709 2711.734,949.214C2712.134,949.516 2720.851,956.164 2731.713,965.512C2756.272,986.647 2773.113,1005.359 2781.648,1015.151C2785.568,1019.648 2791.291,1026.886 2792.111,1027.922C2830.103,1075.969 2849.961,1120.164 2859.945,1145.145C2861.756,1149.675 2871.431,1175.073 2878.217,1203.563Z" style="fill:rgb(255,211,172);"/>
            <path d="M2072.515,1090.159L2072.015,1090.754C2069.418,1089.388 2060.381,1084.303 2047.1,1078.117C2041.955,1075.72 2015.188,1061.61 1980.667,1053.176C1976.856,1052.245 1959.761,1047.087 1936.973,1045.283C1933.152,1044.98 1914.703,1042.514 1891.19,1045.775C1888.536,1046.144 1880.294,1046.871 1868.097,1049.947C1866.477,1050.355 1857.906,1052.15 1846.34,1056.523C1844.251,1057.312 1836.33,1059.891 1825.067,1065.596C1823.632,1066.323 1815.859,1069.761 1805.02,1076.6C1803.046,1077.846 1795.522,1081.948 1781.057,1093.216C1776.944,1096.42 1771.409,1100.855 1760.89,1110.851C1740.737,1130.003 1727.942,1148.679 1721.547,1157.903C1704.43,1182.59 1693.835,1205.294 1686.915,1221.036C1674.289,1249.76 1667.504,1274.323 1663.166,1291.152C1646.213,1356.925 1647.137,1413.002 1648.004,1439.246C1649.722,1491.261 1658.487,1532.456 1663.682,1554.275C1663.928,1555.305 1663.937,1555.304 1663.937,1555.341C1663.938,1555.629 1663.689,1555.542 1663.69,1555.832C1663.416,1555.391 1663.041,1555.018 1662.766,1554.577C1662.765,1554.575 1661.246,1551.04 1659.386,1546.497C1655.233,1536.361 1636.701,1491.371 1625.911,1433.873C1622.249,1414.358 1620.244,1395.359 1619.889,1391.993C1614.491,1340.833 1617.419,1300.504 1620.054,1276.87C1620.997,1268.41 1622.745,1257.799 1623.017,1256.146C1627.12,1231.24 1632.425,1211.044 1636.867,1196.381C1640.077,1185.787 1644.439,1174.277 1645.16,1172.377C1654.287,1148.296 1663.452,1130.75 1668.861,1120.927C1671.703,1115.765 1676.209,1108.582 1676.872,1107.524C1691.193,1084.694 1704.818,1068.654 1713.843,1058.826C1718.372,1053.894 1724.68,1047.925 1725.651,1047.007C1737.106,1036.168 1745.398,1029.909 1751.742,1025.33C1762.028,1017.908 1768.749,1014.049 1770.288,1013.166C1780.514,1007.295 1789.198,1003.237 1795.122,1000.651C1797.519,999.605 1814.187,992.891 1830.077,989.395C1847.457,985.57 1859.875,984.842 1862.491,984.689C1875.056,983.952 1884.887,984.417 1889.739,984.699C1889.784,984.701 1894.807,985.069 1901.346,985.931C1921.515,988.59 1937.58,993.39 1947.512,996.744C1947.642,996.788 1954.974,999.381 1964.486,1003.651C1981.331,1011.214 1994.107,1019.134 1996.173,1020.483C2021.573,1037.061 2040.974,1055.284 2053.348,1067.914C2056.367,1070.996 2067.562,1083.793 2072.515,1090.159Z" style="fill:rgb(255,211,172);"/>
            <path d="M3242.559,1680.57C3238.417,1689.331 3233.089,1697.266 3222.079,1712.503C3213.149,1724.863 3200.1,1742.647 3190.549,1760.052C3175.885,1786.773 3170.476,1806.405 3168.527,1813.61C3161.482,1839.66 3160.325,1861.334 3160.433,1877.225C3160.533,1892.054 3161.728,1896.64 3161.421,1912.173C3159.686,1999.741 3110.338,2063.472 3088.556,2088.788C3081.393,2097.114 3072.406,2106.028 3070.948,2107.474C3069.532,2108.878 3057.47,2120.836 3046.041,2130.132C3028.087,2144.736 3012.744,2154.757 3012.692,2154.789C3000.488,2162.428 2990.659,2167.859 2985.061,2170.906C2985.018,2170.929 2979.943,2173.573 2973.287,2176.812C2955.468,2185.482 2943.709,2190.153 2941.087,2191.194C2905.417,2205.364 2873.502,2214.167 2853.294,2219.251C2853.24,2219.265 2840.956,2222.266 2824.088,2225.628C2800.335,2230.362 2780.115,2233.334 2767.077,2235.09C2764.131,2235.487 2753.683,2236.568 2744.738,2237.371C2730.754,2238.627 2719.886,2239.304 2718.427,2239.401L2713.426,2210.242C2712.359,2203.782 2712.39,2203.78 2708.744,2181.029C2736.61,2173.307 2743.665,2170.606 2754.258,2167.4C2794.899,2155.101 2820.843,2144.153 2830.99,2140.084C2873.308,2123.115 2899.06,2107.986 2907.567,2103.269C2923.6,2094.38 2933.005,2088.075 2938.07,2084.923C2950.203,2077.373 2956.607,2072.608 2959.549,2070.698C2974.526,2060.978 2984.108,2053.259 2988.857,2049.619C3001.908,2039.617 3011.49,2030.817 3021.428,2020.888C3082.298,1960.072 3081.474,1902.133 3081.933,1890.643C3082.558,1875.015 3084.932,1838.459 3099.061,1797.115C3110.341,1764.109 3125.289,1739.311 3126.836,1736.673C3127.953,1734.77 3133.123,1725.956 3141.608,1713.388C3161.258,1684.284 3181.024,1663.147 3186.778,1651.911C3187.522,1650.458 3188.163,1648.947 3189.022,1647.56C3190.849,1644.607 3190.96,1644.684 3193.272,1642.09C3244.844,1584.205 3259.331,1532.795 3263.484,1495.153C3271.553,1422.026 3244.587,1351.986 3221.476,1296.657C3195.576,1256.474 3148.613,1195.672 3065.053,1162.507C3004.792,1138.59 2947.789,1137.753 2923.377,1137.704C2892.436,1137.642 2866.875,1140.597 2855.861,1141.918C2854.543,1137.048 2853.183,1132.19 2851.865,1127.319C2851.831,1127.194 2851.826,1127.063 2851.806,1126.935C2851.619,1125.708 2851.764,1125.697 2851.272,1111.418C2866.393,1108.758 2901.553,1102.91 2940.413,1102.5C3010.031,1101.766 3058.884,1116.093 3090.056,1128.406C3137.458,1147.129 3203.458,1185.033 3262.139,1270.501C3262.315,1270.758 3264.146,1273.425 3264.312,1273.739C3264.477,1274.05 3269.316,1284.761 3269.749,1285.72C3307.184,1368.58 3342.905,1469.723 3300.585,1581.874C3283.152,1628.074 3257.212,1662.488 3242.559,1680.57Z" style="fill:rgb(255,211,172);"/>
            <path d="M2449.093,2395.541L2449.833,2395.192C2450.404,2395.672 2456.288,2403.508 2481.672,2416.114C2483.135,2416.841 2488.888,2419.698 2500.223,2424.658C2542.031,2442.954 2582.441,2451.828 2592.48,2454.126C2597.147,2455.194 2623.568,2461.414 2657.831,2464.721C2661.802,2465.104 2684.866,2467.33 2707.671,2466.379C2730.182,2465.439 2750.534,2459.417 2768.021,2453.113C2789.477,2445.378 2808.38,2435.805 2824.903,2427.323C2861.469,2408.552 2893.065,2389.052 2926.553,2374.051C2949.764,2363.654 2975.873,2354.485 3001.886,2353.824C3077.616,2351.9 3121.374,2346 3149.855,2329.406C3166.448,2319.738 3178.125,2306.822 3199.432,2286.955C3268.796,2222.282 3266.349,2165.774 3299.219,2101.69C3323.923,2053.526 3356.542,2026.538 3385.097,2004.087C3404.389,1988.919 3412.998,1982.257 3419.691,1956.666C3423.642,1941.554 3426.739,1919.881 3429.341,1884.722C3430.468,1869.499 3428.267,1856.777 3426.464,1848.351C3412.912,1785.02 3356.987,1708.795 3304.99,1670.785C3298.323,1665.911 3293.619,1663.127 3292.934,1662.7C3289.888,1660.804 3287.663,1659.387 3282.713,1656.864L3302.204,1616.891C3309.646,1620.472 3318.057,1624.981 3330.636,1634.375C3374.21,1666.915 3422.939,1727.731 3449.05,1790.594C3451.912,1797.486 3463.962,1826.199 3467.647,1858.132C3469.485,1874.062 3469.257,1880.589 3468.061,1898.863C3462.732,1980.276 3451.161,2003.594 3422.118,2028.908C3404.611,2044.166 3375.063,2065.122 3352.554,2100.487C3318.124,2154.584 3320.076,2211.269 3275.586,2277.033C3256.987,2304.528 3236.913,2323.127 3229.639,2330.382C3197.144,2362.788 3175.327,2388.687 3102.668,2401.987C3058.026,2410.158 3006.953,2411.273 3001.14,2411.763C2977.886,2413.725 2949.804,2427.442 2919.641,2443.709C2894.402,2457.32 2864.228,2474.951 2839.67,2486.862C2800.168,2506.021 2776.307,2512.752 2762.146,2516.179C2727.47,2524.572 2704.15,2523.259 2690.167,2522.423C2652.749,2520.186 2623.222,2513.387 2614.754,2511.451C2584.404,2504.511 2563.323,2496.993 2560.273,2495.94C2516.564,2480.84 2487.134,2464.909 2476.921,2459.219C2476.812,2459.158 2469.104,2454.805 2460.404,2449.125C2427.252,2427.479 2421.141,2414.16 2419.041,2409.48C2423.186,2407.302 2423.061,2407.067 2433.783,2401.948C2434.064,2401.814 2434.507,2401.641 2434.571,2401.616C2444.671,2397.679 2445.143,2397.271 2449.093,2395.541Z" style="fill:rgb(255,211,172);"/>
            <path d="M2196.491,1890.598C2194.716,1890.087 2192.779,1889.495 2190.664,1888.811C2167.202,1881.225 2124.651,1862.84 2082.298,1824.673C2070.878,1814.383 2060.642,1802.869 2058.866,1800.873C2051.844,1792.975 2046.088,1785.683 2045.064,1784.247C2034.313,1769.162 2026.654,1755.827 2021.368,1745.883C2021.281,1745.719 2016.223,1735.89 2010.611,1722.249C2004.756,1708.018 2002.303,1699.949 2001.701,1697.969C1990.996,1662.753 1987.26,1631.873 1985.616,1612.95C1985.606,1612.83 1984.737,1600.937 1984.674,1584.772C1984.603,1566.382 1985.622,1547.475 1986.945,1534.789C1987.257,1531.794 1988.953,1515.525 1992.028,1497.499C1992.077,1497.211 1992.214,1497.318 1992.423,1497.115L1992.805,1497.51C1995.194,1514.295 1996.375,1521.569 1999.853,1538.723C2001.272,1545.725 2006.238,1572.762 2017.425,1605.254C2019.943,1612.567 2029.418,1644.422 2050.123,1679.973C2052.022,1683.234 2059.202,1696.993 2071.881,1714.359C2073.605,1716.722 2081.802,1729.133 2095.44,1744.178C2097.462,1746.409 2107.547,1759.479 2124.964,1774.999C2127.9,1777.616 2158.779,1806.95 2202.806,1823.699C2207.898,1825.637 2212.853,1827.258 2216.473,1828.2C2216.741,1828.208 2217.009,1828.225 2217.276,1828.254C2219.467,1828.494 2221.621,1829.06 2223.722,1829.727C2230.722,1831.95 2236.177,1837.333 2237.078,1838.223C2243.153,1844.218 2289.068,1896.434 2324.015,1919.088C2325.155,1919.827 2333.977,1925.546 2339.164,1926.771C2342.63,1927.589 2377.375,1932.478 2426.482,1950.719C2465.568,1965.238 2496.574,1981.763 2514.381,1991.85C2514.674,1992.016 2514.725,1991.936 2520.898,1996.101C2528.468,2001.208 2536.418,2006.812 2544.413,2012.744C2549.745,2016.701 2560.487,2025.922 2561.858,2027.099C2569.694,2033.826 2575.521,2039.181 2576.995,2040.529C2577.052,2040.582 2583.89,2047.179 2592.149,2055.848C2610.933,2075.564 2623.655,2091.761 2630.994,2101.603C2631.038,2101.662 2643.091,2118.164 2653.694,2138.196C2658.491,2147.258 2662.181,2155.474 2664.964,2162.805C2665.602,2164.487 2669.607,2175.036 2671.281,2184.394L2670.553,2184.666C2665.774,2176.795 2652.401,2154.616 2610.199,2123.913C2606.881,2121.499 2584.799,2103.724 2547.215,2083.23C2542.426,2080.618 2532.941,2074.698 2512.98,2064.677C2512.031,2064.2 2500.944,2057.898 2483.639,2049.615C2482.016,2048.838 2477.133,2045.878 2466.687,2040.371C2389.946,1999.914 2333.804,1992.651 2324.992,1990.683C2295.871,1984.181 2257.733,1956.245 2200.061,1894.435C2198.638,1892.91 2197.482,1891.665 2196.491,1890.598Z" style="fill:rgb(255,211,172);"/>
            <path d="M2186.922,2309.824C2198.145,2315.248 2213.616,2321.914 2233.239,2328.133C2248.509,2332.972 2310.72,2353.996 2397.349,2345.916C2418.621,2343.932 2483.684,2337.952 2555.844,2299.686C2577.712,2288.089 2637.043,2256.126 2689.583,2185.877C2715.723,2150.927 2732.509,2116.945 2744.484,2088.044C2762.909,2043.579 2771.007,2005.005 2774.374,1988.529C2774.572,1987.562 2774.557,1987.56 2774.591,1987.462C2774.856,1986.692 2774.987,1986.75 2775.251,1985.982C2775.29,1986.521 2775.474,1987.043 2775.513,1987.582C2775.513,1987.587 2775.022,1996.382 2773.88,2008.033C2767.84,2069.676 2753.611,2111.495 2748.379,2126.357C2705.209,2248.984 2625.606,2313.959 2583.113,2343.186C2573.553,2349.761 2562.652,2356.237 2560.837,2357.315C2497.038,2395.218 2437.976,2409.169 2408.826,2414.904C2399.132,2416.811 2387.616,2418.412 2385.764,2418.669C2344.959,2424.341 2282.759,2427.759 2211.887,2411.486C2211.156,2411.319 2201.046,2408.948 2188.267,2405.114C2185.357,2404.241 2159.172,2396.609 2130.64,2383.201C2126.878,2381.433 2126.836,2381.496 2123.408,2379.15C2117.759,2375.285 2114.163,2370.782 2113.487,2369.935C2112.07,2368.16 2110.781,2366.275 2109.642,2364.31C2108.5,2362.34 2107.535,2360.267 2106.664,2358.163C2094.572,2328.968 2082.616,2299.717 2070.759,2270.426C2064.555,2255.101 2058.369,2239.767 2052.481,2224.318C2052.379,2224.052 2049.701,2209.426 2042.184,2191.259C2039.352,2184.413 2031.511,2164.274 2012.252,2141.117C2007.47,2135.367 1994.499,2119.062 1968.247,2099.363C1963.069,2095.477 1946.871,2082.905 1918.648,2067.522C1913.786,2064.873 1913.734,2064.97 1913.328,2064.712C1912.261,2064.035 1898.885,2053.862 1890.13,2047.428C1841.62,2011.776 1802.235,1989.152 1772.596,1963.273C1754.626,1947.584 1742.904,1932.288 1740.636,1929.327C1715.35,1896.333 1699.32,1855.871 1686.982,1798.431C1682.934,1779.581 1679.15,1754.76 1678.568,1750.946C1676.702,1738.705 1675.329,1728.354 1675.288,1728.082C1675.031,1726.367 1674.65,1724.668 1674.484,1722.942C1674.374,1721.799 1674.137,1701.255 1676.671,1674.689C1680.326,1636.375 1687.355,1609.056 1688.577,1604.133C1714.25,1500.692 1770.797,1409.761 1842.315,1346.644C1856.794,1333.866 1871.535,1323.328 1874.179,1321.437C1903.52,1300.462 1979.004,1252.01 2072.268,1258.773C2072.563,1258.795 2072.447,1258.955 2072.653,1259.166L2072.26,1259.55C2051.003,1260.672 1976.929,1265.741 1896.692,1336.275C1894.777,1337.959 1870.252,1358.985 1844.436,1391.697C1798.198,1450.286 1758.246,1532.542 1748.015,1630.214C1747.641,1633.781 1745.681,1650.003 1745.265,1671.782C1744.902,1690.759 1745.863,1705.751 1746.47,1713.562C1749.294,1725.892 1755.401,1752.837 1765.355,1785.449C1784.98,1849.745 1804.246,1873.361 1830.283,1893.184C1840.803,1901.193 1848.399,1906.686 1877.949,1924.6C1902.352,1939.394 1928.482,1954.872 1961.587,1977.432C1962.649,1978.156 1962.944,1978.366 1965.105,1979.892C1977.331,1986.119 2007.263,2001.795 2035.252,2023.255C2040.905,2027.59 2070.754,2050.32 2094.688,2081.21C2116.165,2108.931 2128.38,2134.781 2135.745,2153.98C2139.246,2163.108 2142.174,2173.314 2142.662,2175.016C2145.509,2184.941 2147.294,2193.183 2148.141,2197.313L2186.922,2309.824Z" style="fill:rgb(255,211,172);"/>
            <path d="M2910.448,1028.56C2946.322,972.356 3092.023,898.983 3187.664,943.092C3514.548,1093.848 3611.865,1597.145 3466.996,1822.127C3604.71,1898.554 3669.086,2013.021 3652.979,2148.276C3623.903,2392.43 3505.812,2574.868 3292.31,2658.292C3191.496,2500.709 3077.106,2394.714 2917.1,2462.058C2790.001,2668.331 2650.236,2796.075 2493.573,2819.047C2464.275,2791.919 2432.74,2769.264 2391.595,2765.832C2040.701,2846.961 1868.103,2727.033 1795.135,2494.755C2036.999,2457.546 2155.646,2412.792 2107.778,2357.844C1622.293,2440.067 1385.561,2243.201 1384.931,1781.441C1270.977,1537.463 1356.237,1405.946 1608.88,1368.919C1627.151,1276.531 1656.397,1184.142 1668.748,1091.754C1775.059,811.064 1936.166,826.201 2107.516,1065.852C2171.239,733.996 2421.275,694.923 2735.28,842.305C2825.194,902.023 2855.291,918.813 2877.852,940.953C2914.538,976.954 2921.322,1005.155 2910.448,1028.56Z" style="fill:none;stroke:rgb(255,211,172);stroke-width:18.21px;"/>
        </g>
    </g>
</svg>
