<?xml version="1.0" encoding="UTF-8" standalone="no"?>
<!DOCTYPE svg PUBLIC "-//W3C//DTD SVG 1.1//EN" "http://www.w3.org/Graphics/SVG/1.1/DTD/svg11.dtd">
<svg width="100%" height="100%" viewBox="0 0 4961 3508" version="1.1" xmlns="http://www.w3.org/2000/svg" xmlns:xlink="http://www.w3.org/1999/xlink" xml:space="preserve" xmlns:serif="http://www.serif.com/" style="fill-rule:evenodd;clip-rule:evenodd;stroke-linecap:round;stroke-linejoin:round;stroke-miterlimit:1.5;">
    <rect x="0" y="0" width="4960.63" height="3507.874" style="fill:rgb(11,45,38);stroke:rgb(11,45,38);stroke-width:1.67px;"/>
    <g transform="matrix(1,0,0,1,1.476354,595.033302)">
        <g transform="matrix(1,0,0,1,0,-155.323316)">
            <g transform="matrix(1,0,0,1,-47.637894,-155.905611)">
                <g transform="matrix(1,0,0,1,47.637894,155.905611)">
                    <path d="M2465.537,1060.135L2455.042,1065.329C2454.4,1063.797 2453.668,1062.304 2453.027,1060.772C2448.319,1049.527 2435.426,1014.64 2435.296,1014.159C2435.179,1013.724 2435.715,1013.277 2435.598,1012.843C2435.873,1013.2 2436.553,1013.044 2436.827,1013.401C2437.131,1013.795 2457.05,1045.206 2463.135,1055.769C2463.964,1057.208 2464.708,1058.695 2465.537,1060.135Z" style="fill:rgb(243,222,180);"/>
                    <path d="M2423.611,1141.138C2486.084,1195.851 2486.098,1195.84 2486.13,1195.892C2486.683,1196.785 2487.418,1197.588 2487.788,1198.571C2488.935,1201.613 2487.804,1204.141 2487.608,1204.58C2487.405,1205.032 2486.238,1207.643 2483.098,1208.827C2482.648,1208.997 2480.056,1209.974 2477.089,1208.647C2476.13,1208.218 2475.166,1207.654 2474.514,1206.83C2457.313,1185.116 2440.812,1162.852 2423.611,1141.138Z" style="fill:rgb(243,222,180);"/>
                    <path d="M2514.137,866.907C2472.939,931.566 2472.953,931.578 2472.906,931.618C2472.159,932.254 2471.52,933.045 2470.665,933.525C2468.018,935.011 2465.525,934.322 2465.092,934.202C2462.072,933.367 2460.765,931.038 2460.538,930.634C2459.052,927.987 2459.742,925.494 2459.861,925.061C2460.123,924.116 2460.507,923.146 2461.176,922.429C2478.628,903.731 2496.686,885.605 2514.137,866.907Z" style="fill:rgb(243,222,180);"/>
                    <path d="M2532.794,1047.627C2495.761,1130.424 2495.776,1130.433 2495.736,1130.479C2494.997,1131.329 2494.407,1132.337 2493.517,1133.029C2493.11,1133.345 2490.766,1135.169 2487.304,1134.751C2483.731,1134.319 2481.848,1131.898 2481.522,1131.478C2481.205,1131.071 2479.381,1128.726 2479.8,1125.265C2479.935,1124.147 2480.208,1122.981 2480.843,1122.05C2497.899,1097.062 2515.738,1072.615 2532.794,1047.627Z" style="fill:rgb(243,222,180);"/>
                    <path d="M2519.285,1304.942C2512.903,1290.532 2500.273,1261.627 2487.2,1215.764C2479.494,1188.73 2474.209,1162.001 2473.276,1157.283C2460.915,1094.762 2458.216,1038.231 2457.308,1015.155C2454.554,945.16 2458.18,877.103 2463.271,809.284C2463.318,808.65 2463.676,808.92 2464.147,808.495L2464.935,809.372C2462.414,892.861 2461.675,985.585 2474.919,1077.707C2479.747,1111.29 2491.145,1181.406 2522.032,1259.293C2525.227,1267.349 2529.944,1279.169 2537.833,1296.606L2519.285,1304.942Z" style="fill:rgb(243,222,180);"/>
                    <g transform="matrix(0.790214,0,0,0.689322,1482.898928,287.918629)">
                        <path d="M1066.891,793.146C1106.609,810.258 1131.243,822.136 1161.017,859.09C1190.492,895.671 1211.905,913.902 1211.069,972.676C1209.722,1067.354 1237.208,1037.603 1137.178,1025.678C1056.722,1016.086 1024.134,967.135 978.448,908.238C949.61,871.059 942.827,773.055 946.919,768.363C948.498,767.459 1018.022,772.091 1066.891,793.146Z" style="fill:rgb(243,222,180);stroke:rgb(216,195,165);stroke-width:2.25px;"/>
                    </g>
                    <path d="M2314.027,865.268C2389.289,898.102 2424.89,956.566 2436.318,1009.283" style="fill:rgb(243,222,180);"/>
                    <path d="M2424.13,1011.934C2421.432,999.346 2418.147,986.341 2412.046,971.267C2396.121,931.923 2371.299,908.252 2363.905,901.345C2343.557,882.336 2323.383,871.154 2314.543,866.479C2313.732,866.051 2313.722,866.066 2313.694,866.032C2313.307,865.565 2313.647,865.398 2313.263,864.935C2313.653,864.887 2313.971,864.553 2314.362,864.505C2314.502,864.488 2319.344,866.329 2319.775,866.493C2358.607,881.262 2385.372,902.357 2404.549,923.534C2408.305,927.682 2416.384,937.301 2423.261,947.963C2433.927,964.501 2439.271,977.807 2441.965,984.904C2445.835,995.097 2447.314,1001.514 2448.518,1006.627L2424.13,1011.934Z" style="fill:rgb(11,45,38);"/>
                    <g transform="matrix(0.518256,-0.120811,0.105386,0.452086,1681.320511,810.414014)">
                        <path d="M1066.891,793.146C1106.609,810.258 1131.243,822.136 1161.017,859.09C1190.492,895.671 1211.905,913.902 1211.069,972.676C1209.722,1067.354 1237.208,1037.603 1137.178,1025.678C1056.722,1016.086 1024.134,967.135 978.448,908.238C949.61,871.059 942.827,773.055 946.919,768.363C948.498,767.459 1018.022,772.091 1066.891,793.146Z" style="fill:rgb(243,222,180);"/>
                    </g>
                    <g transform="matrix(0.655842,-0.152883,0.152883,0.655842,664.754659,848.295312)">
                        <path d="M2314.027,865.268C2389.289,898.102 2424.89,956.566 2436.318,1009.283" style="fill:rgb(243,222,180);"/>
                        <path d="M2418.216,1013.249C2415.651,1001.009 2412.797,988.171 2407.09,972.907C2392.262,933.254 2368.017,909.053 2362.877,903.868C2338.632,879.411 2313.774,866.749 2313.532,866.403C2313.198,865.925 2313.227,865.251 2312.892,864.773C2313.466,864.661 2313.951,864.247 2314.524,864.135C2314.702,864.1 2320.424,866.083 2320.935,866.26C2349.992,876.327 2380.468,892.762 2407.65,921.077C2410.229,923.763 2419.797,934.194 2427.878,946.199C2439.136,962.923 2444.635,975.987 2447.715,983.745C2451.996,994.528 2453.44,1001.268 2454.417,1005.307L2418.216,1013.249Z" style="fill:rgb(11,45,38);"/>
                    </g>
                    <g transform="matrix(-0.53174,-0.020897,-0.018229,0.463849,3176.829495,412.573878)">
                        <path d="M1066.891,793.146C1106.609,810.258 1131.243,822.136 1161.017,859.09C1190.492,895.671 1211.905,913.902 1211.069,972.676C1209.722,1067.354 1237.208,1037.603 1137.178,1025.678C1056.722,1016.086 1024.134,967.135 978.448,908.238C949.61,871.059 942.827,773.055 946.919,768.363C948.498,767.459 1018.022,772.091 1066.891,793.146Z" style="fill:rgb(243,222,180);stroke:rgb(243,222,180);stroke-width:3.34px;"/>
                    </g>
                    <g transform="matrix(-0.672906,-0.026445,-0.026445,0.672906,4182.295743,258.046383)">
                        <path d="M2314.027,865.268C2389.289,898.102 2424.89,956.566 2436.318,1009.283" style="fill:rgb(243,222,180);"/>
                        <path d="M2454.417,1005.307C2453.685,1002.283 2451.29,990.073 2441.865,970.345C2440.713,967.934 2434.044,954.232 2423.4,939.89C2414.099,927.356 2390.33,897.756 2345.941,876.513C2331.956,869.821 2320.136,865.92 2314.524,864.135C2313.637,863.853 2313.76,864.434 2312.892,864.773C2313.199,865.27 2313.226,865.906 2313.532,866.403C2313.692,866.661 2332.352,876.295 2352.174,893.816C2357.401,898.436 2383.473,920.704 2400.969,958.461C2401.149,958.851 2406.518,969.563 2411.722,986.627C2412.424,988.928 2414.599,995.986 2418.216,1013.249L2454.417,1005.307Z" style="fill:rgb(11,45,38);"/>
                    </g>
                    <g transform="matrix(-0.447014,0.288726,0.251862,0.389941,2743.782236,45.664772)">
                        <path d="M1066.891,793.146C1106.609,810.258 1131.243,822.136 1161.017,859.09C1190.492,895.671 1211.905,913.902 1211.069,972.676C1209.722,1067.354 1237.208,1037.603 1137.178,1025.678C1056.722,1016.086 1024.134,967.135 978.448,908.238C949.61,871.059 942.827,773.055 946.919,768.363C948.498,767.459 1018.022,772.091 1066.891,793.146Z" style="fill:rgb(243,222,180);stroke:rgb(243,222,180);stroke-width:3.34px;"/>
                    </g>
                    <g transform="matrix(-0.565688,0.365377,0.365377,0.565688,3477.440966,-659.023807)">
                        <path d="M2314.027,865.268C2389.289,898.102 2424.89,956.566 2436.318,1009.283" style="fill:rgb(243,222,180);"/>
                        <path d="M2454.417,1005.307C2453.685,1002.283 2451.29,990.073 2441.865,970.345C2440.713,967.934 2434.044,954.232 2423.4,939.89C2414.099,927.356 2390.33,897.756 2345.941,876.513C2331.956,869.821 2320.136,865.92 2314.524,864.135C2313.637,863.853 2313.76,864.434 2312.892,864.773C2313.199,865.27 2313.226,865.906 2313.532,866.403C2313.692,866.661 2332.352,876.295 2352.174,893.816C2357.401,898.436 2383.473,920.704 2400.969,958.461C2401.149,958.851 2406.518,969.563 2411.722,986.627C2412.424,988.928 2414.599,995.986 2418.216,1013.249L2454.417,1005.307Z" style="fill:rgb(11,45,38);"/>
                    </g>
                    <g transform="matrix(-0.594357,-0.157411,-0.128164,0.62038,3382.443119,588.75512)">
                        <path d="M1066.891,793.146C1106.609,810.258 1131.243,822.136 1161.017,859.09C1190.492,895.671 1211.905,913.902 1211.069,972.676C1209.722,1067.354 1237.208,1037.603 1137.178,1025.678C1056.722,1016.086 1024.134,967.135 978.448,908.238C949.61,871.059 942.827,773.055 946.919,768.363C948.498,767.459 1018.022,772.091 1066.891,793.146Z" style="fill:rgb(243,222,180);stroke:rgb(243,222,180);stroke-width:2.75px;"/>
                    </g>
                    <g transform="matrix(-0.752147,-0.199201,-0.185928,0.899986,4551.332571,625.026748)">
                        <path d="M2314.027,865.268C2389.289,898.102 2424.89,956.566 2436.318,1009.283" style="fill:rgb(243,222,180);"/>
                        <path d="M2452.104,1007.511C2451.388,1004.476 2449.134,993.386 2440.838,975.262C2438.069,969.212 2432.213,957.885 2424.578,946.806C2415.505,933.639 2392.546,902.987 2348.872,879.593C2333.725,871.479 2320.771,866.699 2314.478,864.466C2313.717,864.196 2313.813,864.642 2313.052,864.843C2313.325,865.216 2313.305,865.698 2313.578,866.071C2313.795,866.367 2333.629,875.758 2354.485,893.589C2363.053,900.915 2391.87,925.61 2409.12,970.443C2410.426,973.839 2413.615,982.639 2415.992,991.547C2417.062,995.558 2419.094,1004.094 2420.524,1011.019L2452.104,1007.511Z" style="fill:rgb(11,45,38);"/>
                    </g>
                    <path d="M2136.051,1163.845C2136.36,1154.396 2135.722,1146.862 2129.758,1134.358C2128.524,1131.77 2126.562,1128.43 2126.551,1128.383C2126.479,1128.082 2123.833,1124.435 2121.9,1122.321C2121.287,1121.65 2118.161,1117.839 2112.329,1114.573C2107.247,1111.729 2101.658,1110.571 2101.641,1110.561C2101.44,1110.437 2101.342,1110.184 2101.141,1110.061C2101.343,1109.939 2101.441,1109.682 2101.643,1109.56C2101.647,1109.558 2103.369,1109.158 2105.325,1108.882C2114.063,1107.649 2120.301,1109.853 2121.959,1110.424C2127.128,1112.207 2130.296,1114.402 2132.402,1115.928C2133.812,1116.949 2136.534,1119.383 2137.1,1120.029C2138.166,1121.245 2139.657,1123.209 2139.872,1123.492C2142.817,1127.37 2144.617,1130.957 2144.962,1131.644C2146.025,1133.762 2147.979,1137.744 2149.593,1144.698C2151.795,1154.189 2151.273,1162.755 2151.214,1164.562L2136.051,1163.845Z" style="fill:rgb(243,222,180);"/>
                    <path d="M2064.489,1064.777C2063.409,1062.811 2061.261,1059.336 2057.921,1056.156C2056.875,1055.16 2055.618,1053.766 2052.565,1051.438C2051.102,1050.321 2048.597,1048.031 2042.181,1044.296C2040.841,1043.515 2040.923,1043.375 2035.634,1040.397C2035.588,1040.371 2035.529,1040.36 2035.498,1040.317C2035.284,1040.033 2035.338,1040.001 2035.124,1039.716C2035.335,1039.61 2035.516,1039.449 2035.726,1039.343C2035.824,1039.294 2042.273,1039.128 2043.69,1039.222C2054.032,1039.911 2058.754,1041.624 2059.335,1041.813C2063.676,1043.219 2066.067,1044.499 2066.622,1044.797C2073.059,1048.243 2076.214,1051.63 2077.772,1053.341C2078.959,1054.644 2080.683,1057.022 2080.945,1057.541C2081.094,1057.839 2082.217,1060.62 2082.326,1060.889C2083.448,1063.669 2083.847,1064.714 2085.084,1068.527C2086.375,1072.509 2087.685,1078.944 2087.871,1079.859C2088.029,1080.636 2089.693,1089.657 2090.465,1098.373C2092.076,1116.543 2091.871,1131.589 2090.734,1155.304C2090.65,1157.069 2090.552,1158.739 2090.365,1161.936C2090.03,1167.653 2090.058,1167.653 2089.999,1168.147C2089.935,1168.681 2089.574,1168.532 2089.51,1169.062C2089.429,1168.726 2088.998,1168.547 2088.917,1168.211C2088.61,1166.94 2085.266,1146.713 2082.353,1132.389C2082.245,1131.857 2080.022,1120.465 2077.081,1108.401C2076.811,1107.29 2075.739,1102.891 2073.44,1094.589C2070.901,1085.417 2068.077,1077.641 2064.489,1064.777Z" style="fill:rgb(243,222,180);"/>
                    <path d="M1994.335,1010.506C1993.492,1009.462 1991.67,1007.308 1989.352,1005.235C1987.145,1003.26 1984.595,1001.351 1983.341,1000.528C1982.309,999.851 1982.302,999.866 1978.948,998.028C1978.053,997.537 1977.889,997.343 1971.972,994.86C1968.944,993.59 1968.892,993.731 1965.839,992.517C1960.99,990.588 1957.075,989.425 1955.613,988.848C1953.161,987.88 1950.59,986.898 1950.577,986.886C1950.404,986.726 1950.264,986.532 1950.091,986.372C1950.273,986.222 1950.423,986.035 1950.605,985.885C1950.632,985.863 1956.06,984.129 1956.362,984.043C1958.02,983.569 1962.289,982.644 1962.806,982.532C1967.722,981.468 1968.949,981.358 1971.693,981.147C1974.348,980.943 1976.861,980.775 1981.517,981.285C1983.931,981.549 1986.233,981.852 1990.32,983.245C1994.622,984.711 1997.269,986.166 2000.204,988.173C2003.839,990.658 2006.765,993.97 2007.269,994.54C2009.195,996.72 2010.557,998.633 2011.333,999.694C2012.085,1000.722 2011.908,1000.813 2012.414,1001.984C2015.935,1010.13 2020.471,1023.194 2023.334,1033.524C2030.667,1059.975 2036.25,1090.983 2039.245,1143.789L2038.254,1143.926C2033.784,1123.97 2026.599,1091.425 2014.971,1058.892C2014.33,1057.098 2011.153,1047.685 2004.31,1031.772C2002.415,1027.365 1999.563,1020.993 1994.335,1010.506Z" style="fill:rgb(243,222,180);"/>
                    <path d="M2017.56,1400.668C2007.699,1393.188 1987.481,1375.395 1959.136,1317.666C1952.434,1304.016 1945.309,1287.132 1944.176,1284.447C1898.491,1176.19 1863.495,1030.742 1863.588,1006.648C1863.629,996.033 1871.614,989.732 1883.616,989.611C1904.307,989.404 1938.417,1007.135 1955.182,1040.565C1980.371,1090.793 2019.197,1177.543 2058.237,1225.443C2091.63,1266.413 2171.084,1343.202 2213.648,1357.994C2220.286,1360.301 2224.774,1360.465 2226.84,1360.024C2226.764,1354.31 2217.202,1337.228 2191.018,1316.205C2167.879,1297.627 2145.486,1287.064 2141.631,1284.886C2110.808,1267.475 2079.454,1215.261 2087.838,1184.449C2092.539,1167.177 2127.765,1160.219 2159.703,1171.517C2182.334,1179.522 2194.548,1193.293 2198.47,1197.256C2216.748,1215.729 2257.006,1253.305 2280.959,1267.666C2313.368,1287.098 2361.305,1312.593 2406.209,1343.941C2460.767,1382.029 2478.679,1408.258 2484.488,1417.16C2499.6,1440.319 2509.854,1462.132 2511.764,1466.195C2531.087,1507.301 2538.882,1542.009 2542.663,1566.785C2552.696,1632.522 2541.435,1680.439 2542.524,1695.563C2542.531,1695.658 2542.589,1695.763 2542.546,1695.847C2542.384,1696.167 2542.264,1696.077 2542.102,1696.397C2541.955,1696.212 2541.698,1696.136 2541.551,1695.951C2541.544,1695.941 2541.422,1694.861 2541.378,1694.061C2540.239,1673.501 2552.63,1609.383 2526.374,1526.988C2521.903,1512.958 2508.69,1472.058 2475.677,1424.051C2457.006,1396.901 2422.979,1371.169 2390.479,1349.783C2348.908,1322.426 2295.351,1293.733 2272.642,1280.123C2246.058,1264.192 2203.869,1224.902 2184.921,1205.671C2155.086,1175.39 2113.594,1179.772 2104.14,1187.794C2103.614,1188.241 2103.356,1188.616 2103.279,1188.734C2102.978,1189.748 2099.544,1201.152 2109.804,1223.484C2119.577,1244.757 2136.508,1264.222 2150.987,1271.651C2153.524,1272.953 2196.332,1293.757 2224.895,1325.913C2243.064,1346.368 2246.875,1361.874 2239.342,1370.658C2233.284,1377.722 2222.659,1376.69 2216.712,1375.544C2168.924,1366.332 2073.135,1271.07 2041.586,1230.45C2003.001,1180.773 1964.338,1094.85 1940.76,1047.822C1925.273,1016.934 1892.994,1003.761 1881.236,1005.982C1880.461,1006.128 1879.997,1006.314 1879.741,1006.442C1879.35,1016.459 1891.54,1075.841 1914.1,1150.878C1944.009,1250.357 1969.411,1301.966 1976.104,1315.688C1985.82,1335.612 2004.872,1371.786 2026.28,1388.658C2027.647,1389.735 2027.675,1389.697 2027.781,1389.804C2029.718,1391.773 2065.947,1438.562 2117.558,1479.334C2137.792,1495.32 2154.6,1505.866 2164.98,1512.029C2167.894,1513.759 2179.131,1519.485 2196.372,1530.014C2226.125,1548.183 2265.496,1575.598 2310.261,1619.237C2311.143,1620.097 2311.187,1620.055 2311.928,1621.04C2337.061,1654.458 2343.746,1685.592 2346.063,1699.032L2345.081,1699.221C2342.655,1687.959 2335.467,1656.595 2308.682,1623.564C2308.333,1623.134 2308.336,1623.132 2305.248,1620.351C2290.538,1607.105 2253.703,1574.721 2201.269,1543.444C2179.483,1530.449 2162.886,1522.437 2161.262,1521.581C2157.633,1519.666 2150.876,1515.67 2149.982,1515.141C2124.395,1500.01 2101.321,1482.724 2080.66,1464.788C2049.465,1437.708 2024.691,1408.944 2017.56,1400.668Z" style="fill:rgb(243,222,180);"/>
                    <g transform="matrix(-1,0,0,1,4957.677214,0)">
                        <path d="M2151.214,1164.562C2151.309,1161.663 2152.254,1146.81 2145.476,1132.69C2144.697,1131.067 2143.486,1128.559 2140.606,1124.486C2139.795,1123.339 2137.77,1120.859 2137.517,1120.549C2137.395,1120.399 2137.225,1120.021 2135.091,1118.137C2134.626,1117.727 2132.247,1115.524 2128.228,1113.203C2127.264,1112.645 2121.895,1109.79 2116.018,1108.926C2109.629,1107.986 2104.725,1108.878 2101.794,1109.527C2101.743,1109.538 2101.681,1109.528 2101.641,1109.561C2101.366,1109.786 2101.416,1109.836 2101.141,1110.061C2101.342,1110.184 2101.44,1110.437 2101.641,1110.561C2101.678,1110.584 2103.231,1110.886 2105.604,1111.668C2106.294,1111.896 2113.426,1114.054 2119.378,1119.693C2122.947,1123.074 2126.471,1128.051 2126.551,1128.383C2126.602,1128.597 2128.604,1131.691 2130.544,1136.07C2130.559,1136.103 2131.639,1138.232 2133.226,1142.675C2136.676,1152.337 2136.135,1161.269 2136.051,1163.845L2151.214,1164.562Z" style="fill:rgb(243,222,180);"/>
                    </g>
                    <g transform="matrix(-1,0,0,1,4957.677214,0)">
                        <path d="M2064.506,1064.835C2065.545,1068.492 2065.57,1068.589 2066.706,1072.431C2069.54,1082.014 2071.73,1088.011 2074.312,1097.819C2074.877,1099.966 2076.285,1104.745 2078.244,1113.334C2078.482,1114.379 2079.695,1119.098 2082.688,1134.05C2085.359,1147.389 2088.646,1167.088 2088.917,1168.211C2088.998,1168.547 2089.429,1168.726 2089.51,1169.062C2089.551,1168.718 2089.958,1168.49 2089.999,1168.147C2090.003,1168.111 2090.607,1157.817 2090.666,1156.71C2091.035,1149.78 2091.621,1134.386 2091.631,1128.104C2091.648,1116.947 2091.412,1108.068 2090.218,1095.725C2090.196,1095.489 2089.047,1085.515 2087.691,1078.982C2086.269,1072.13 2085.332,1069.106 2083.66,1064.285C2083.295,1063.231 2080.961,1057.574 2080.945,1057.541C2080.788,1057.23 2077.845,1052.542 2072.801,1048.734C2067.166,1044.481 2062.373,1042.886 2061.913,1042.713C2058.166,1041.305 2055.722,1040.715 2051.848,1040.105C2046.206,1039.217 2042.989,1039.201 2042.215,1039.198C2038.777,1039.181 2035.728,1039.342 2035.725,1039.343C2035.514,1039.449 2035.335,1039.611 2035.124,1039.716C2035.266,1039.905 2035.356,1040.129 2035.498,1040.317C2035.51,1040.334 2038.082,1041.732 2040.982,1043.544C2046.235,1046.826 2046.455,1046.572 2053.579,1052.228C2055.992,1054.143 2058.828,1056.958 2060.292,1058.662C2062.186,1060.866 2063.666,1063.32 2064.506,1064.835Z" style="fill:rgb(243,222,180);"/>
                    </g>
                    <g transform="matrix(-1,0,0,1,4957.677214,0)">
                        <path d="M1994.328,1010.493C2000.956,1023.784 2003.821,1030.513 2007.364,1039.016C2022.94,1076.39 2032.283,1117.525 2036.366,1135.496C2037.328,1139.729 2038.252,1143.925 2038.254,1143.926C2038.57,1144.034 2038.93,1143.681 2039.245,1143.789C2037.155,1108.038 2034.253,1082.09 2028.628,1055.048C2028.389,1053.9 2025.283,1039.566 2021.683,1027.863C2017.716,1014.972 2014.517,1007.102 2013.798,1005.333C2011.721,1000.225 2011.624,1000.091 2011.333,999.694C2008.052,995.21 2005.633,992.24 2000.663,988.491C2000.561,988.414 1997.529,986.297 1995.137,985.178C1991.851,983.642 1987.527,982.183 1984.474,981.686C1979.011,980.796 1975.431,980.941 1974.643,980.972C1969.936,981.163 1967.85,981.537 1967.266,981.641C1963.332,982.346 1957.244,983.764 1955.771,984.228C1953.638,984.899 1950.617,985.875 1950.604,985.886C1950.422,986.035 1950.273,986.222 1950.091,986.372C1950.459,986.76 1950.412,986.825 1950.707,986.939C1956.121,989.04 1956.116,989.051 1956.595,989.209C1964.041,991.676 1963.964,991.886 1968.381,993.47C1968.912,993.66 1970.359,994.179 1974.931,996.101C1977.346,997.117 1977.832,997.456 1980.779,999.017C1981.968,999.647 1983.199,1000.29 1986.671,1002.971C1987.243,1003.413 1989.36,1005.168 1990.558,1006.376C1992.178,1008.009 1992.669,1008.4 1994.328,1010.493Z" style="fill:rgb(243,222,180);"/>
                    </g>
                    <g transform="matrix(-1,0,0,1,4957.677214,0)">
                        <path d="M2102.795,1188.528C2104.515,1185.297 2117.411,1179.647 2136.858,1181.766C2167.076,1185.058 2184.201,1203.845 2186.276,1205.925C2206.302,1225.998 2243.363,1259.357 2268.101,1275.243C2274.61,1279.423 2285.152,1285.173 2310.938,1299.344C2334.16,1312.107 2374.023,1334.12 2406.007,1355.583C2462.257,1393.331 2476.805,1416.878 2484.754,1428.721C2484.758,1428.726 2484.758,1428.722 2485.445,1428.876C2485.386,1428.647 2485.657,1428.413 2485.598,1428.184C2485.598,1428.183 2481.714,1421.721 2479.075,1417.781C2457.29,1385.259 2415.389,1353.608 2374.4,1326.723C2341.365,1305.055 2287.933,1274.669 2275.798,1266.455C2256.018,1253.065 2229.402,1228.628 2210.662,1210.479C2194.523,1194.85 2193.904,1193.06 2186.541,1187.156C2152.577,1159.918 2107.039,1163.13 2092.849,1177.162C2089.378,1180.595 2088.155,1183.944 2087.401,1189.125C2082.821,1220.568 2113.632,1270.079 2143.69,1285.738C2145.81,1286.843 2184.637,1305.78 2211.416,1334.99C2223.157,1347.797 2226.83,1356.599 2226.882,1360.057C2224.962,1360.475 2221.376,1360.28 2216.991,1359.069C2173.751,1347.121 2082.348,1258.137 2051.254,1216.496C2014.809,1167.692 1977.764,1085.593 1955.182,1040.565C1936.062,1002.437 1893.736,983.949 1874.425,991.168C1867.935,993.594 1863.726,998.931 1863.595,1006.115C1863.284,1023.198 1880.712,1098.993 1904.816,1175.612C1921.162,1227.574 1953.353,1320.727 1991.004,1372.963C2003.581,1390.411 2014.105,1398.536 2016.474,1400.364C2016.567,1400.436 2016.587,1400.45 2017.268,1400.962C2029.369,1415.085 2061.065,1451.918 2106.494,1486.573C2131.123,1505.363 2156.248,1519.629 2162.363,1522.684C2177.82,1530.406 2215.174,1549.566 2261.135,1584.272C2283.565,1601.209 2300.072,1615.972 2307.247,1622.438C2308.166,1623.266 2308.175,1623.256 2308.952,1624.22C2332.873,1653.905 2341.198,1681.584 2344.937,1698.561C2345.079,1699.206 2345.066,1699.214 2345.081,1699.221C2345.576,1699.428 2345.568,1698.825 2346.063,1699.032C2344.117,1687.687 2337.984,1655.485 2312.087,1620.916C2311.34,1619.919 2311.296,1619.96 2310.403,1619.087C2274.688,1584.12 2242.132,1559.032 2210.825,1538.641C2186.783,1522.981 2168.292,1513.366 2166.337,1512.257C2162.956,1510.338 2156.556,1506.285 2155.714,1505.752C2103.641,1472.775 2066.35,1432.414 2055.411,1420.688C2039.5,1403.633 2028.503,1389.947 2028.065,1389.504C2026.852,1388.277 2009.497,1378.242 1983.673,1330.282C1926.645,1224.374 1879.998,1032.366 1879.734,1006.831C1879.732,1006.627 1879.732,1006.549 1879.738,1006.442C1883.532,1004.481 1898.183,1006.182 1914.586,1017.712C1933.025,1030.675 1940.165,1046.625 1941.863,1050.027C1967.414,1101.23 2005.876,1186.755 2045.722,1235.643C2080.345,1278.124 2171.757,1367.817 2217.7,1375.688C2237.04,1379.002 2243.262,1368.662 2242.933,1359.433C2242.183,1338.348 2207.578,1301.531 2155.371,1274.167C2150.91,1271.828 2144.356,1269.154 2134.595,1259.583C2113.669,1239.064 2098.473,1206.343 2102.683,1188.98L2102.795,1188.528Z" style="fill:rgb(243,222,180);"/>
                    </g>
                    <g transform="matrix(1,0,0,1.223702,859.095653,-1038.519478)">
                        <circle cx="1619.743" cy="1664.495" r="717.819" style="fill:none;stroke:rgb(243,222,180);stroke-width:7.21px;"/>
                    </g>
                    <g transform="matrix(1.376988,0,0,1.376988,35.132157,-1614.847253)">
                        <path d="M1081.446,2762.813L1087.354,2764.066L1066.586,2829.952L878.598,2829.952L878.598,2823.328L887.729,2823.328C897.993,2823.328 905.334,2819.985 909.75,2813.301C912.257,2809.482 913.51,2800.65 913.51,2786.804L913.51,2630.147C913.51,2614.989 911.839,2605.5 908.497,2601.68C903.842,2596.429 896.919,2593.803 887.729,2593.803L878.598,2593.803L878.598,2587.178L988.526,2587.178L988.526,2593.803C975.636,2593.683 966.594,2594.877 961.402,2597.383C956.21,2599.89 952.659,2603.053 950.75,2606.872C948.84,2610.692 947.885,2619.823 947.885,2634.265L947.885,2786.804C947.885,2796.711 948.84,2803.514 950.75,2807.214C952.182,2809.721 954.39,2811.571 957.374,2812.764C960.358,2813.958 969.668,2814.555 985.304,2814.555L1003.028,2814.555C1021.648,2814.555 1034.718,2813.182 1042.237,2810.437C1049.757,2807.692 1056.62,2802.828 1062.826,2795.845C1069.033,2788.863 1075.24,2777.852 1081.446,2762.813Z" style="fill:rgb(243,222,180);fill-rule:nonzero;"/>
                    </g>
                    <g transform="matrix(1.376988,0,0,1.376988,35.132157,-1614.847253)">
                        <path d="M1134.262,2727.722C1134.143,2752.071 1140.051,2771.168 1151.986,2785.014C1163.922,2798.859 1177.947,2805.782 1194.06,2805.782C1204.802,2805.782 1214.142,2802.828 1222.079,2796.92C1230.017,2791.011 1236.671,2780.896 1242.042,2766.573L1247.592,2770.154C1245.085,2786.506 1237.805,2801.396 1225.75,2814.823C1213.694,2828.251 1198.596,2834.965 1180.453,2834.965C1160.759,2834.965 1143.9,2827.296 1129.875,2811.959C1115.851,2796.621 1108.839,2776.002 1108.839,2750.102C1108.839,2722.053 1116.03,2700.18 1130.413,2684.485C1144.795,2668.789 1162.848,2660.941 1184.571,2660.941C1202.952,2660.941 1218.051,2666.999 1229.867,2679.114C1241.684,2691.228 1247.592,2707.431 1247.592,2727.722L1134.262,2727.722ZM1134.262,2717.338L1210.173,2717.338C1209.577,2706.834 1208.323,2699.434 1206.414,2695.137C1203.43,2688.453 1198.984,2683.202 1193.075,2679.382C1187.167,2675.563 1180.99,2673.653 1174.545,2673.653C1164.638,2673.653 1155.776,2677.502 1147.958,2685.201C1140.14,2692.899 1135.575,2703.612 1134.262,2717.338Z" style="fill:rgb(243,222,180);fill-rule:nonzero;"/>
                    </g>
                    <g transform="matrix(1.376988,0,0,1.376988,35.132157,-1614.847253)">
                        <path d="M1317.595,2575.362L1317.595,2695.316C1330.844,2680.755 1341.347,2671.415 1349.106,2667.297C1356.864,2663.179 1364.622,2661.12 1372.38,2661.12C1381.69,2661.12 1389.687,2663.687 1396.371,2668.819C1403.055,2673.951 1408.009,2682.008 1411.231,2692.989C1413.499,2700.628 1414.633,2714.593 1414.633,2734.883L1414.633,2792.891C1414.633,2803.275 1415.468,2810.377 1417.139,2814.197C1418.333,2817.061 1420.362,2819.329 1423.227,2821C1426.091,2822.671 1431.343,2823.507 1438.982,2823.507L1438.982,2829.952L1358.416,2829.952L1358.416,2823.507L1362.175,2823.507C1369.814,2823.507 1375.126,2822.343 1378.11,2820.015C1381.093,2817.688 1383.182,2814.256 1384.376,2809.721C1384.734,2807.811 1384.913,2802.201 1384.913,2792.891L1384.913,2734.883C1384.913,2716.98 1383.988,2705.223 1382.138,2699.613C1380.288,2694.004 1377.334,2689.796 1373.276,2686.991C1369.217,2684.186 1364.324,2682.784 1358.595,2682.784C1352.746,2682.784 1346.659,2684.336 1340.333,2687.439C1334.007,2690.542 1326.428,2696.808 1317.595,2706.238L1317.595,2792.891C1317.595,2804.111 1318.222,2811.093 1319.475,2813.839C1320.728,2816.584 1323.056,2818.881 1326.458,2820.731C1329.859,2822.582 1335.738,2823.507 1344.093,2823.507L1344.093,2829.952L1262.81,2829.952L1262.81,2823.507C1270.091,2823.507 1275.82,2822.373 1279.998,2820.105C1282.385,2818.911 1284.294,2816.643 1285.727,2813.301C1287.159,2809.959 1287.875,2803.156 1287.875,2792.891L1287.875,2644.47C1287.875,2625.731 1287.428,2614.213 1286.532,2609.916C1285.637,2605.619 1284.265,2602.695 1282.415,2601.143C1280.565,2599.592 1278.088,2598.816 1274.985,2598.816C1272.478,2598.816 1268.42,2599.771 1262.81,2601.68L1260.304,2595.414L1309.36,2575.362L1317.595,2575.362Z" style="fill:rgb(243,222,180);fill-rule:nonzero;"/>
                    </g>
                    <g transform="matrix(1.376988,0,0,1.376988,35.132157,-1614.847253)">
                        <path d="M1509.164,2575.362L1509.164,2792.891C1509.164,2803.156 1509.91,2809.959 1511.402,2813.301C1512.894,2816.643 1515.192,2819.18 1518.295,2820.911C1521.398,2822.641 1527.187,2823.507 1535.662,2823.507L1535.662,2829.952L1455.274,2829.952L1455.274,2823.507C1462.794,2823.507 1467.926,2822.731 1470.671,2821.179C1473.417,2819.627 1475.565,2817.061 1477.117,2813.48C1478.668,2809.9 1479.444,2803.037 1479.444,2792.891L1479.444,2643.933C1479.444,2625.433 1479.026,2614.064 1478.191,2609.827C1477.355,2605.589 1476.013,2602.695 1474.163,2601.143C1472.313,2599.592 1469.955,2598.816 1467.091,2598.816C1463.987,2598.816 1460.049,2599.771 1455.274,2601.68L1452.231,2595.414L1501.108,2575.362L1509.164,2575.362Z" style="fill:rgb(243,222,180);fill-rule:nonzero;"/>
                    </g>
                    <g transform="matrix(1.376988,0,0,1.376988,35.132157,-1614.847253)">
                        <path d="M1634.848,2661.12C1659.674,2661.12 1679.607,2670.55 1694.646,2689.408C1707.417,2705.522 1713.803,2724.022 1713.803,2744.91C1713.803,2759.591 1710.282,2774.451 1703.24,2789.49C1696.198,2804.529 1686.5,2815.868 1674.146,2823.507C1661.793,2831.145 1648.037,2834.965 1632.878,2834.965C1608.171,2834.965 1588.537,2825.118 1573.975,2805.424C1561.682,2788.833 1555.535,2770.213 1555.535,2749.564C1555.535,2734.525 1559.265,2719.576 1566.724,2704.716C1574.184,2689.856 1584.001,2678.875 1596.176,2671.773C1608.35,2664.671 1621.241,2661.12 1634.848,2661.12ZM1629.298,2672.758C1622.972,2672.758 1616.616,2674.638 1610.23,2678.397C1603.845,2682.157 1598.682,2688.752 1594.744,2698.181C1590.805,2707.61 1588.835,2719.725 1588.835,2734.525C1588.835,2758.397 1593.58,2778.986 1603.069,2796.293C1612.558,2813.6 1625.06,2822.253 1640.577,2822.253C1652.155,2822.253 1661.703,2817.479 1669.223,2807.93C1676.742,2798.382 1680.502,2781.97 1680.502,2758.695C1680.502,2729.572 1674.236,2706.655 1661.703,2689.945C1653.229,2678.487 1642.427,2672.758 1629.298,2672.758Z" style="fill:rgb(243,222,180);fill-rule:nonzero;"/>
                    </g>
                    <g transform="matrix(1.376988,0,0,1.376988,35.132157,-1614.847253)">
                        <path d="M1786.671,2696.033C1798.607,2684.097 1805.649,2677.234 1807.797,2675.443C1813.168,2670.908 1818.957,2667.387 1825.164,2664.88C1831.37,2662.374 1837.517,2661.12 1843.604,2661.12C1853.869,2661.12 1862.702,2664.104 1870.102,2670.072C1877.502,2676.04 1882.455,2684.694 1884.962,2696.033C1897.256,2681.71 1907.64,2672.31 1916.114,2667.834C1924.588,2663.358 1933.302,2661.12 1942.253,2661.12C1950.967,2661.12 1958.695,2663.358 1965.439,2667.834C1972.182,2672.31 1977.524,2679.621 1981.462,2689.766C1984.088,2696.689 1985.401,2707.551 1985.401,2722.351L1985.401,2792.891C1985.401,2803.156 1986.177,2810.198 1987.729,2814.018C1988.922,2816.643 1991.13,2818.881 1994.353,2820.731C1997.576,2822.582 2002.827,2823.507 2010.108,2823.507L2010.108,2829.952L1929.184,2829.952L1929.184,2823.507L1932.585,2823.507C1939.628,2823.507 1945.118,2822.134 1949.057,2819.389C1951.802,2817.479 1953.771,2814.435 1954.965,2810.258C1955.442,2808.229 1955.681,2802.44 1955.681,2792.891L1955.681,2722.351C1955.681,2708.983 1954.07,2699.554 1950.847,2694.063C1946.192,2686.424 1938.732,2682.605 1928.468,2682.605C1922.142,2682.605 1915.786,2684.186 1909.4,2687.349C1903.015,2690.512 1895.286,2696.391 1886.215,2704.984L1885.857,2706.954L1886.215,2714.652L1886.215,2792.891C1886.215,2804.111 1886.842,2811.093 1888.095,2813.839C1889.348,2816.584 1891.705,2818.881 1895.167,2820.731C1898.628,2822.582 1904.536,2823.507 1912.891,2823.507L1912.891,2829.952L1829.998,2829.952L1829.998,2823.507C1839.069,2823.507 1845.305,2822.432 1848.707,2820.284C1852.109,2818.135 1854.466,2814.913 1855.779,2810.616C1856.376,2808.587 1856.674,2802.679 1856.674,2792.891L1856.674,2722.351C1856.674,2708.983 1854.705,2699.375 1850.766,2693.526C1845.514,2685.887 1838.174,2682.068 1828.744,2682.068C1822.299,2682.068 1815.913,2683.798 1809.587,2687.26C1799.681,2692.512 1792.042,2698.42 1786.671,2704.984L1786.671,2792.891C1786.671,2803.633 1787.417,2810.616 1788.909,2813.839C1790.401,2817.061 1792.609,2819.478 1795.533,2821.09C1798.457,2822.701 1804.395,2823.507 1813.347,2823.507L1813.347,2829.952L1732.244,2829.952L1732.244,2823.507C1739.763,2823.507 1745.015,2822.701 1747.999,2821.09C1750.983,2819.478 1753.251,2816.912 1754.802,2813.391C1756.354,2809.87 1757.13,2803.037 1757.13,2792.891L1757.13,2730.229C1757.13,2712.206 1756.593,2700.568 1755.518,2695.316C1754.683,2691.378 1753.37,2688.662 1751.58,2687.17C1749.789,2685.678 1747.342,2684.932 1744.239,2684.932C1740.897,2684.932 1736.899,2685.828 1732.244,2687.618L1729.558,2681.173L1778.972,2661.12L1786.671,2661.12L1786.671,2696.033Z" style="fill:rgb(243,222,180);fill-rule:nonzero;"/>
                    </g>
                    <g transform="matrix(1.376988,0,0,1.376988,35.132157,-1614.847253)">
                        <path d="M2050.75,2727.722C2050.63,2752.071 2056.538,2771.168 2068.474,2785.014C2080.41,2798.859 2094.434,2805.782 2110.548,2805.782C2121.29,2805.782 2130.63,2802.828 2138.567,2796.92C2146.504,2791.011 2153.158,2780.896 2158.529,2766.573L2164.08,2770.154C2161.573,2786.506 2154.292,2801.396 2142.237,2814.823C2130.182,2828.251 2115.083,2834.965 2096.941,2834.965C2077.247,2834.965 2060.388,2827.296 2046.363,2811.959C2032.339,2796.621 2025.326,2776.002 2025.326,2750.102C2025.326,2722.053 2032.518,2700.18 2046.9,2684.485C2061.283,2668.789 2079.336,2660.941 2101.059,2660.941C2119.44,2660.941 2134.539,2666.999 2146.355,2679.114C2158.171,2691.228 2164.08,2707.431 2164.08,2727.722L2050.75,2727.722ZM2050.75,2717.338L2126.661,2717.338C2126.064,2706.834 2124.811,2699.434 2122.901,2695.137C2119.917,2688.453 2115.471,2683.202 2109.563,2679.382C2103.655,2675.563 2097.478,2673.653 2091.033,2673.653C2081.126,2673.653 2072.264,2677.502 2064.446,2685.201C2056.628,2692.899 2052.062,2703.612 2050.75,2717.338Z" style="fill:rgb(243,222,180);fill-rule:nonzero;"/>
                    </g>
                    <g transform="matrix(1.376988,0,0,1.376988,35.132157,-1614.847253)">
                        <path d="M2242.319,2575.362L2242.319,2792.891C2242.319,2803.156 2243.065,2809.959 2244.556,2813.301C2246.048,2816.643 2248.346,2819.18 2251.449,2820.911C2254.553,2822.641 2260.342,2823.507 2268.816,2823.507L2268.816,2829.952L2188.429,2829.952L2188.429,2823.507C2195.948,2823.507 2201.08,2822.731 2203.826,2821.179C2206.571,2819.627 2208.719,2817.061 2210.271,2813.48C2211.823,2809.9 2212.598,2803.037 2212.598,2792.891L2212.598,2643.933C2212.598,2625.433 2212.181,2614.064 2211.345,2609.827C2210.51,2605.589 2209.167,2602.695 2207.317,2601.143C2205.467,2599.592 2203.11,2598.816 2200.245,2598.816C2197.142,2598.816 2193.203,2599.771 2188.429,2601.68L2185.385,2595.414L2234.262,2575.362L2242.319,2575.362Z" style="fill:rgb(243,222,180);fill-rule:nonzero;"/>
                    </g>
                    <g transform="matrix(1.376988,0,0,1.376988,35.132157,-1614.847253)">
                        <path d="M2380.714,2806.319C2363.884,2819.329 2353.321,2826.849 2349.024,2828.878C2342.579,2831.862 2335.716,2833.354 2328.435,2833.354C2317.096,2833.354 2307.756,2829.474 2300.416,2821.716C2293.075,2813.958 2289.405,2803.753 2289.405,2791.101C2289.405,2783.104 2291.195,2776.181 2294.776,2770.333C2299.67,2762.216 2308.174,2754.578 2320.289,2747.416C2332.404,2740.255 2352.545,2731.541 2380.714,2721.277L2380.714,2714.831C2380.714,2698.479 2378.118,2687.26 2372.926,2681.173C2367.734,2675.085 2360.184,2672.042 2350.278,2672.042C2342.758,2672.042 2336.79,2674.071 2332.374,2678.129C2327.838,2682.187 2325.57,2686.842 2325.57,2692.094L2325.929,2702.478C2325.929,2707.968 2324.526,2712.206 2321.721,2715.189C2318.916,2718.173 2315.246,2719.665 2310.71,2719.665C2306.294,2719.665 2302.684,2718.114 2299.879,2715.01C2297.074,2711.907 2295.671,2707.67 2295.671,2702.299C2295.671,2692.034 2300.923,2682.605 2311.427,2674.011C2321.93,2665.417 2336.671,2661.12 2355.649,2661.12C2370.21,2661.12 2382.146,2663.567 2391.456,2668.461C2398.498,2672.161 2403.69,2677.95 2407.032,2685.828C2409.181,2690.96 2410.255,2701.463 2410.255,2717.338L2410.255,2773.018C2410.255,2788.654 2410.553,2798.233 2411.15,2801.754C2411.747,2805.275 2412.731,2807.632 2414.104,2808.826C2415.477,2810.019 2417.058,2810.616 2418.848,2810.616C2420.758,2810.616 2422.429,2810.198 2423.861,2809.363C2426.368,2807.811 2431.202,2803.454 2438.363,2796.293L2438.363,2806.319C2424.995,2824.223 2412.224,2833.175 2400.05,2833.175C2394.201,2833.175 2389.546,2831.145 2386.085,2827.087C2382.623,2823.029 2380.833,2816.106 2380.714,2806.319ZM2380.714,2794.682L2380.714,2732.198C2362.691,2739.359 2351.053,2744.432 2345.802,2747.416C2336.372,2752.668 2329.629,2758.158 2325.57,2763.887C2321.512,2769.617 2319.483,2775.883 2319.483,2782.686C2319.483,2791.28 2322.049,2798.412 2327.182,2804.081C2332.314,2809.751 2338.222,2812.585 2344.906,2812.585C2353.978,2812.585 2365.913,2806.617 2380.714,2794.682Z" style="fill:rgb(243,222,180);fill-rule:nonzero;"/>
                    </g>
                    <g transform="matrix(1.376988,0,0,1.376988,35.132157,-1614.847253)">
                        <path d="M2481.69,2674.369L2481.69,2665.954C2493.984,2658.674 2502.339,2651.87 2506.755,2645.544C2509.859,2641.009 2511.41,2635.578 2511.41,2629.252C2511.41,2625.552 2510.754,2622.807 2509.441,2621.016C2508.009,2619.226 2506.457,2618.331 2504.786,2618.331C2503.473,2618.331 2501.742,2618.749 2499.594,2619.584C2496.491,2620.658 2493.924,2621.195 2491.895,2621.195C2487.121,2621.195 2482.884,2619.405 2479.184,2615.824C2475.484,2612.244 2473.634,2607.768 2473.634,2602.397C2473.634,2596.429 2475.484,2591.774 2479.184,2588.432C2484.197,2583.896 2490.165,2581.628 2497.087,2581.628C2505.084,2581.628 2512.276,2585 2518.661,2591.744C2525.047,2598.488 2528.24,2606.872 2528.24,2616.898C2528.24,2630.983 2522.928,2643.814 2512.306,2655.391C2505.263,2663.03 2495.058,2669.356 2481.69,2674.369Z" style="fill:rgb(243,222,180);fill-rule:nonzero;"/>
                    </g>
                    <g transform="matrix(1.376988,0,0,1.376988,35.132157,-1614.847253)">
                        <path d="M2658.399,2661.12L2658.399,2716.98L2652.491,2716.98C2647.955,2699.434 2642.137,2687.499 2635.035,2681.173C2627.933,2674.847 2618.892,2671.684 2607.911,2671.684C2599.556,2671.684 2592.812,2673.892 2587.68,2678.308C2582.547,2682.724 2579.981,2687.618 2579.981,2692.989C2579.981,2699.673 2581.891,2705.402 2585.71,2710.176C2589.411,2715.07 2596.93,2720.262 2608.269,2725.753L2634.408,2738.464C2658.638,2750.281 2670.753,2765.857 2670.753,2785.193C2670.753,2800.112 2665.113,2812.138 2653.834,2821.269C2642.555,2830.399 2629.932,2834.965 2615.968,2834.965C2605.942,2834.965 2594.483,2833.175 2581.593,2829.594C2577.654,2828.4 2574.431,2827.803 2571.925,2827.803C2569.179,2827.803 2567.031,2829.355 2565.479,2832.458L2559.571,2832.458L2559.571,2773.913L2565.479,2773.913C2568.821,2790.624 2575.207,2803.216 2584.636,2811.69C2594.065,2820.165 2604.629,2824.402 2616.326,2824.402C2624.561,2824.402 2631.275,2821.985 2636.467,2817.151C2641.659,2812.317 2644.255,2806.498 2644.255,2799.695C2644.255,2791.459 2641.361,2784.536 2635.572,2778.926C2629.783,2773.317 2618.235,2766.215 2600.929,2757.621C2583.622,2749.027 2572.283,2741.269 2566.912,2734.346C2561.541,2727.543 2558.855,2718.949 2558.855,2708.565C2558.855,2695.078 2563.48,2683.798 2572.73,2674.727C2581.981,2665.656 2593.946,2661.12 2608.627,2661.12C2615.072,2661.12 2622.89,2662.493 2632.081,2665.238C2638.168,2667.029 2642.226,2667.924 2644.255,2667.924C2646.165,2667.924 2647.657,2667.506 2648.731,2666.671C2649.806,2665.835 2651.059,2663.985 2652.491,2661.12L2658.399,2661.12Z" style="fill:rgb(243,222,180);fill-rule:nonzero;"/>
                    </g>
                    <g transform="matrix(1.684738,0,0,1.684738,841.857899,-2896.243229)">
                        <path d="M571.364,3187.405L569.289,3206.774L520.298,3206.774L520.298,3205.268L522.129,3205.268C523.73,3205.268 525.018,3204.984 525.995,3204.414C526.7,3204.034 527.242,3203.383 527.622,3202.461C527.921,3201.81 528.07,3200.101 528.07,3197.334L528.07,3161.038C528.07,3158.217 527.921,3156.454 527.622,3155.749C527.324,3155.043 526.72,3154.426 525.812,3153.897C524.903,3153.368 523.675,3153.104 522.129,3153.104L520.298,3153.104L520.298,3151.598L549.717,3151.598L549.717,3153.104L547.316,3153.104C545.716,3153.104 544.427,3153.389 543.451,3153.958C542.745,3154.338 542.189,3154.989 541.782,3155.911C541.484,3156.562 541.335,3158.271 541.335,3161.038L541.335,3196.195C541.335,3199.016 541.498,3200.813 541.823,3201.586C542.149,3202.359 542.786,3202.936 543.735,3203.315C544.414,3203.559 546.055,3203.681 548.659,3203.681L553.257,3203.681C556.187,3203.681 558.628,3203.166 560.581,3202.135C562.534,3201.104 564.223,3199.477 565.647,3197.252C567.071,3195.028 568.421,3191.746 569.696,3187.405L571.364,3187.405Z" style="fill:rgb(143,124,116);fill-rule:nonzero;"/>
                    </g>
                    <g transform="matrix(1.684738,0,0,1.684738,841.857899,-2896.243229)">
                        <path d="M576.288,3151.598L604.771,3151.598L604.771,3153.104L603.346,3153.104C601.203,3153.104 599.732,3153.327 598.932,3153.775C598.131,3154.223 597.562,3154.84 597.223,3155.626C596.884,3156.413 596.714,3158.38 596.714,3161.527L596.714,3188.545C596.714,3193.482 597.087,3196.751 597.833,3198.351C598.579,3199.952 599.806,3201.281 601.515,3202.339C603.224,3203.397 605.381,3203.926 607.985,3203.926C610.969,3203.926 613.512,3203.254 615.615,3201.911C617.717,3200.569 619.29,3198.717 620.335,3196.357C621.379,3193.997 621.901,3189.888 621.901,3184.028L621.901,3161.527C621.901,3159.058 621.643,3157.295 621.128,3156.237C620.613,3155.179 619.962,3154.446 619.175,3154.04C617.954,3153.416 616.232,3153.104 614.007,3153.104L614.007,3151.598L633.091,3151.598L633.091,3153.104L631.952,3153.104C630.405,3153.104 629.117,3153.416 628.086,3154.04C627.055,3154.663 626.309,3155.599 625.848,3156.847C625.495,3157.715 625.319,3159.275 625.319,3161.527L625.319,3182.482C625.319,3188.965 624.892,3193.645 624.037,3196.52C623.183,3199.395 621.101,3202.04 617.791,3204.455C614.482,3206.869 609.965,3208.076 604.242,3208.076C599.467,3208.076 595.778,3207.439 593.174,3206.164C589.62,3204.427 587.111,3202.203 585.646,3199.49C584.181,3196.778 583.449,3193.129 583.449,3188.545L583.449,3161.527C583.449,3158.353 583.273,3156.379 582.92,3155.606C582.567,3154.833 581.957,3154.216 581.089,3153.755C580.221,3153.294 578.62,3153.077 576.288,3153.104L576.288,3151.598Z" style="fill:rgb(143,124,116);fill-rule:nonzero;"/>
                    </g>
                    <g transform="matrix(1.684738,0,0,1.684738,841.857899,-2896.243229)">
                        <path d="M669.712,3174.425L684.93,3197.008C687.453,3200.752 689.25,3203.024 690.322,3203.824C691.393,3204.624 692.661,3205.106 694.126,3205.268L694.126,3206.774L667.23,3206.774L667.23,3205.268C669.373,3205.106 670.756,3204.78 671.38,3204.292C672.004,3203.804 672.316,3203.207 672.316,3202.501C672.316,3202.013 672.221,3201.579 672.031,3201.199C671.652,3200.386 670.702,3198.866 669.183,3196.642L661.126,3184.72L652.704,3195.015C650.181,3198.134 648.919,3200.25 648.919,3201.362C648.919,3202.149 649.245,3202.881 649.896,3203.559C650.547,3204.238 651.51,3204.726 652.785,3205.024C653.355,3205.187 654.521,3205.268 656.284,3205.268L656.284,3206.774L635.085,3206.774L635.085,3205.268C637.499,3204.916 639.398,3204.265 640.781,3203.315C642.599,3202.067 645.135,3199.463 648.39,3195.503L659.336,3182.156L645.298,3161.527C642.992,3158.136 641.677,3156.25 641.351,3155.871C640.619,3154.975 639.9,3154.338 639.194,3153.958C638.489,3153.578 637.513,3153.294 636.265,3153.104L636.265,3151.598L663.649,3151.598L663.649,3153.104L662.266,3153.104C660.692,3153.104 659.594,3153.355 658.97,3153.856C658.346,3154.358 658.034,3154.989 658.034,3155.749C658.034,3156.345 658.129,3156.861 658.319,3157.295L661.126,3161.527L667.962,3171.943L673.781,3164.822C676.765,3161.16 678.257,3158.597 678.257,3157.132C678.257,3156.4 678.047,3155.721 677.626,3155.098C677.206,3154.474 676.602,3153.985 675.816,3153.633C675.029,3153.28 673.808,3153.104 672.153,3153.104L672.153,3151.598L692.458,3151.598L692.458,3153.104C690.857,3153.131 689.569,3153.327 688.592,3153.694C687.616,3154.06 686.571,3154.745 685.459,3155.749C684.754,3156.4 682.991,3158.421 680.169,3161.811L669.712,3174.425Z" style="fill:rgb(143,124,116);fill-rule:nonzero;"/>
                    </g>
                    <g transform="matrix(1.684738,0,0,1.684738,841.857899,-2896.243229)">
                        <path d="M717.401,3154.772L717.401,3177.233L718.499,3177.233C721.999,3177.233 724.535,3176.134 726.109,3173.937C727.682,3171.74 728.686,3168.498 729.12,3164.212L730.666,3164.212L730.666,3193.102L729.12,3193.102C728.794,3189.955 728.109,3187.378 727.065,3185.371C726.02,3183.364 724.806,3182.014 723.423,3181.322C722.04,3180.631 720.032,3180.285 717.401,3180.285L717.401,3195.828C717.401,3198.866 717.53,3200.725 717.787,3201.403C718.045,3202.081 718.527,3202.637 719.232,3203.071C719.937,3203.505 721.077,3203.722 722.65,3203.722L725.946,3203.722C731.1,3203.722 735.23,3202.529 738.336,3200.141C741.442,3197.754 743.673,3194.119 745.029,3189.237L746.535,3189.237L744.053,3206.774L696.364,3206.774L696.364,3205.268L698.195,3205.268C699.796,3205.268 701.084,3204.984 702.061,3204.414C702.766,3204.034 703.309,3203.383 703.688,3202.461C703.987,3201.81 704.136,3200.101 704.136,3197.334L704.136,3161.038C704.136,3158.543 704.068,3157.01 703.932,3156.44C703.661,3155.491 703.159,3154.758 702.427,3154.243C701.396,3153.483 699.985,3153.104 698.195,3153.104L696.364,3153.104L696.364,3151.598L742.547,3151.598L742.547,3167.915L741.001,3167.915C740.214,3163.927 739.109,3161.065 737.685,3159.329C736.261,3157.593 734.247,3156.318 731.642,3155.504C730.123,3155.016 727.275,3154.772 723.097,3154.772L717.401,3154.772Z" style="fill:rgb(143,124,116);fill-rule:nonzero;"/>
                    </g>
                    <g transform="matrix(1.684738,0,0,1.684738,841.857899,-2896.243229)">
                        <path d="M772.21,3206.774L772.21,3205.268L774.041,3205.268C775.642,3205.268 776.869,3205.017 777.724,3204.516C778.578,3204.014 779.209,3203.329 779.616,3202.461C779.86,3201.891 779.982,3200.182 779.982,3197.334L779.982,3161.038C779.982,3158.217 779.833,3156.454 779.535,3155.749C779.236,3155.043 778.633,3154.426 777.724,3153.897C776.815,3153.368 775.588,3153.104 774.041,3153.104L772.21,3153.104L772.21,3151.598L796.909,3151.598C803.501,3151.598 808.804,3152.493 812.819,3154.284C817.729,3156.481 821.452,3159.804 823.989,3164.253C826.525,3168.702 827.793,3173.734 827.793,3179.349C827.793,3183.228 827.169,3186.802 825.921,3190.071C824.674,3193.339 823.059,3196.039 821.079,3198.168C819.099,3200.297 816.814,3202.006 814.223,3203.295C811.632,3204.583 808.465,3205.58 804.722,3206.286C803.067,3206.611 800.463,3206.774 796.909,3206.774L772.21,3206.774ZM793.247,3154.731L793.247,3197.781C793.247,3200.06 793.356,3201.457 793.573,3201.973C793.79,3202.488 794.156,3202.881 794.671,3203.153C795.404,3203.559 796.462,3203.763 797.845,3203.763C802.375,3203.763 805.834,3202.217 808.221,3199.124C811.476,3194.947 813.104,3188.463 813.104,3179.674C813.104,3172.594 811.992,3166.938 809.767,3162.707C808.004,3159.397 805.739,3157.146 802.972,3155.952C801.019,3155.111 797.777,3154.704 793.247,3154.731Z" style="fill:rgb(143,124,116);fill-rule:nonzero;"/>
                    </g>
                    <g transform="matrix(1.684738,0,0,1.684738,841.857899,-2896.243229)">
                        <path d="M853.998,3154.772L853.998,3177.233L855.096,3177.233C858.596,3177.233 861.132,3176.134 862.705,3173.937C864.279,3171.74 865.282,3168.498 865.716,3164.212L867.263,3164.212L867.263,3193.102L865.716,3193.102C865.391,3189.955 864.706,3187.378 863.661,3185.371C862.617,3183.364 861.403,3182.014 860.02,3181.322C858.636,3180.631 856.629,3180.285 853.998,3180.285L853.998,3195.828C853.998,3198.866 854.126,3200.725 854.384,3201.403C854.642,3202.081 855.123,3202.637 855.829,3203.071C856.534,3203.505 857.673,3203.722 859.247,3203.722L862.542,3203.722C867.697,3203.722 871.827,3202.529 874.933,3200.141C878.039,3197.754 880.27,3194.119 881.626,3189.237L883.132,3189.237L880.65,3206.774L832.961,3206.774L832.961,3205.268L834.792,3205.268C836.392,3205.268 837.681,3204.984 838.657,3204.414C839.363,3204.034 839.905,3203.383 840.285,3202.461C840.583,3201.81 840.733,3200.101 840.733,3197.334L840.733,3161.038C840.733,3158.543 840.665,3157.01 840.529,3156.44C840.258,3155.491 839.756,3154.758 839.024,3154.243C837.993,3153.483 836.582,3153.104 834.792,3153.104L832.961,3153.104L832.961,3151.598L879.144,3151.598L879.144,3167.915L877.598,3167.915C876.811,3163.927 875.706,3161.065 874.282,3159.329C872.857,3157.593 870.843,3156.318 868.239,3155.504C866.72,3155.016 863.872,3154.772 859.694,3154.772L853.998,3154.772ZM871.413,3132.759L857.944,3146.878L854.445,3146.878L859.165,3132.759L871.413,3132.759Z" style="fill:rgb(143,124,116);fill-rule:nonzero;"/>
                    </g>
                    <g transform="matrix(1.684738,0,0,1.684738,841.857899,-2896.243229)">
                        <path d="M942.499,3150.337L942.499,3169.461L940.912,3169.461C939.718,3164.47 937.494,3160.645 934.238,3157.987C930.983,3155.328 927.294,3153.999 923.171,3153.999C919.726,3153.999 916.565,3154.989 913.69,3156.969C910.814,3158.95 908.712,3161.54 907.383,3164.741C905.674,3168.837 904.819,3173.394 904.819,3178.413C904.819,3183.35 905.443,3187.846 906.691,3191.902C907.939,3195.957 909.892,3199.022 912.551,3201.098C915.209,3203.173 918.654,3204.21 922.886,3204.21C926.358,3204.21 929.539,3203.451 932.428,3201.932C935.317,3200.413 938.362,3197.795 941.563,3194.079L941.563,3198.839C938.47,3202.067 935.249,3204.407 931.899,3205.858C928.549,3207.31 924.636,3208.035 920.16,3208.035C914.273,3208.035 909.044,3206.855 904.474,3204.495C899.903,3202.135 896.376,3198.744 893.894,3194.323C891.412,3189.901 890.171,3185.195 890.171,3180.203C890.171,3174.941 891.548,3169.949 894.301,3165.229C897.054,3160.509 900.771,3156.847 905.45,3154.243C910.13,3151.639 915.101,3150.337 920.363,3150.337C924.242,3150.337 928.338,3151.178 932.652,3152.86C935.147,3153.836 936.734,3154.324 937.412,3154.324C938.28,3154.324 939.033,3154.006 939.671,3153.368C940.308,3152.731 940.722,3151.72 940.912,3150.337L942.499,3150.337Z" style="fill:rgb(143,124,116);fill-rule:nonzero;"/>
                    </g>
                    <g transform="matrix(1.684738,0,0,1.684738,841.857899,-2896.243229)">
                        <path d="M979.242,3150.825C988.031,3150.5 995.172,3153.063 1000.665,3158.515C1006.158,3163.968 1008.905,3170.79 1008.905,3178.983C1008.905,3185.981 1006.857,3192.139 1002.761,3197.456C997.335,3204.509 989.672,3208.035 979.771,3208.035C969.842,3208.035 962.165,3204.672 956.74,3197.944C952.454,3192.627 950.311,3186.32 950.311,3179.023C950.311,3170.831 953.098,3164.002 958.673,3158.536C964.247,3153.07 971.104,3150.5 979.242,3150.825ZM979.73,3153.429C974.684,3153.429 970.846,3156.006 968.215,3161.16C966.072,3165.392 965,3171.468 965,3179.39C965,3188.802 966.655,3195.76 969.964,3200.264C972.27,3203.41 975.498,3204.984 979.649,3204.984C982.443,3204.984 984.776,3204.305 986.647,3202.949C989.034,3201.213 990.893,3198.439 992.222,3194.628C993.551,3190.817 994.216,3185.846 994.216,3179.715C994.216,3172.418 993.537,3166.959 992.181,3163.337C990.825,3159.716 989.095,3157.159 986.993,3155.667C984.891,3154.175 982.47,3153.429 979.73,3153.429Z" style="fill:rgb(143,124,116);fill-rule:nonzero;"/>
                    </g>
                    <g transform="matrix(1.684738,0,0,1.684738,841.857899,-2896.243229)">
                        <path d="M1034.011,3181.627L1034.011,3197.09C1034.011,3200.074 1034.194,3201.952 1034.56,3202.725C1034.926,3203.498 1035.57,3204.116 1036.493,3204.577C1037.415,3205.038 1039.138,3205.268 1041.66,3205.268L1041.66,3206.774L1013.421,3206.774L1013.421,3205.268C1015.971,3205.268 1017.701,3205.031 1018.609,3204.556C1019.518,3204.082 1020.156,3203.464 1020.522,3202.705C1020.888,3201.945 1021.071,3200.074 1021.071,3197.09L1021.071,3161.282C1021.071,3158.298 1020.888,3156.42 1020.522,3155.647C1020.156,3154.874 1019.511,3154.257 1018.589,3153.795C1017.667,3153.334 1015.944,3153.104 1013.421,3153.104L1013.421,3151.598L1039.056,3151.598C1045.729,3151.598 1050.612,3152.059 1053.705,3152.982C1056.797,3153.904 1059.32,3155.606 1061.273,3158.088C1063.226,3160.57 1064.203,3163.48 1064.203,3166.816C1064.203,3170.885 1062.738,3174.249 1059.808,3176.907C1057.936,3178.589 1055.319,3179.851 1051.955,3180.692L1065.22,3199.368C1066.956,3201.783 1068.19,3203.288 1068.923,3203.885C1070.035,3204.726 1071.323,3205.187 1072.788,3205.268L1072.788,3206.774L1055.414,3206.774L1037.632,3181.627L1034.011,3181.627ZM1034.011,3154.569L1034.011,3178.738L1036.33,3178.738C1040.101,3178.738 1042.922,3178.393 1044.793,3177.701C1046.665,3177.009 1048.137,3175.761 1049.208,3173.957C1050.28,3172.153 1050.816,3169.8 1050.816,3166.898C1050.816,3162.693 1049.832,3159.587 1047.866,3157.58C1045.899,3155.572 1042.732,3154.569 1038.364,3154.569L1034.011,3154.569Z" style="fill:rgb(143,124,116);fill-rule:nonzero;"/>
                    </g>
                    <g transform="matrix(1.684738,0,0,1.684738,841.857899,-2896.243229)">
                        <path d="M1115.594,3154.772L1115.594,3177.233L1116.693,3177.233C1120.192,3177.233 1122.729,3176.134 1124.302,3173.937C1125.875,3171.74 1126.879,3168.498 1127.313,3164.212L1128.859,3164.212L1128.859,3193.102L1127.313,3193.102C1126.987,3189.955 1126.302,3187.378 1125.258,3185.371C1124.214,3183.364 1123,3182.014 1121.616,3181.322C1120.233,3180.631 1118.226,3180.285 1115.594,3180.285L1115.594,3195.828C1115.594,3198.866 1115.723,3200.725 1115.981,3201.403C1116.238,3202.081 1116.72,3202.637 1117.425,3203.071C1118.131,3203.505 1119.27,3203.722 1120.843,3203.722L1124.139,3203.722C1129.293,3203.722 1133.423,3202.529 1136.529,3200.141C1139.635,3197.754 1141.866,3194.119 1143.223,3189.237L1144.728,3189.237L1142.246,3206.774L1094.557,3206.774L1094.557,3205.268L1096.388,3205.268C1097.989,3205.268 1099.277,3204.984 1100.254,3204.414C1100.959,3204.034 1101.502,3203.383 1101.882,3202.461C1102.18,3201.81 1102.329,3200.101 1102.329,3197.334L1102.329,3161.038C1102.329,3158.543 1102.261,3157.01 1102.126,3156.44C1101.855,3155.491 1101.353,3154.758 1100.62,3154.243C1099.589,3153.483 1098.179,3153.104 1096.388,3153.104L1094.557,3153.104L1094.557,3151.598L1140.741,3151.598L1140.741,3167.915L1139.194,3167.915C1138.408,3163.927 1137.302,3161.065 1135.878,3159.329C1134.454,3157.593 1132.44,3156.318 1129.836,3155.504C1128.317,3155.016 1125.468,3154.772 1121.291,3154.772L1115.594,3154.772Z" style="fill:rgb(143,124,116);fill-rule:nonzero;"/>
                    </g>
                    <g transform="matrix(1.684738,0,0,1.684738,841.857899,-2896.243229)">
                        <path d="M1207.798,3151.598L1207.798,3153.104C1205.791,3153.429 1204,3154.501 1202.427,3156.318C1201.288,3157.675 1199.592,3160.862 1197.341,3165.88L1178.338,3208.035L1176.996,3208.035L1158.075,3164.171C1155.796,3158.882 1154.27,3155.776 1153.497,3154.853C1152.724,3153.931 1151.266,3153.348 1149.123,3153.104L1149.123,3151.598L1175.571,3151.598L1175.571,3153.104L1174.676,3153.104C1172.289,3153.104 1170.661,3153.402 1169.793,3153.999C1169.17,3154.406 1168.858,3155.003 1168.858,3155.789C1168.858,3156.278 1168.966,3156.854 1169.183,3157.519C1169.4,3158.183 1170.133,3159.967 1171.38,3162.869L1183.14,3190.335L1194.045,3165.88C1195.347,3162.924 1196.147,3160.943 1196.445,3159.94C1196.744,3158.936 1196.893,3158.081 1196.893,3157.376C1196.893,3156.562 1196.676,3155.843 1196.242,3155.22C1195.808,3154.596 1195.17,3154.121 1194.33,3153.795C1193.163,3153.334 1191.617,3153.104 1189.691,3153.104L1189.691,3151.598L1207.798,3151.598Z" style="fill:rgb(143,124,116);fill-rule:nonzero;"/>
                    </g>
                    <g transform="matrix(1.684738,0,0,1.684738,841.857899,-2896.243229)">
                        <path d="M1231.358,3154.772L1231.358,3177.233L1232.456,3177.233C1235.956,3177.233 1238.492,3176.134 1240.065,3173.937C1241.639,3171.74 1242.642,3168.498 1243.076,3164.212L1244.623,3164.212L1244.623,3193.102L1243.076,3193.102C1242.751,3189.955 1242.066,3187.378 1241.021,3185.371C1239.977,3183.364 1238.763,3182.014 1237.38,3181.322C1235.996,3180.631 1233.989,3180.285 1231.358,3180.285L1231.358,3195.828C1231.358,3198.866 1231.486,3200.725 1231.744,3201.403C1232.002,3202.081 1232.483,3202.637 1233.189,3203.071C1233.894,3203.505 1235.033,3203.722 1236.607,3203.722L1239.902,3203.722C1245.057,3203.722 1249.187,3202.529 1252.293,3200.141C1255.399,3197.754 1257.63,3194.119 1258.986,3189.237L1260.492,3189.237L1258.01,3206.774L1210.321,3206.774L1210.321,3205.268L1212.152,3205.268C1213.752,3205.268 1215.041,3204.984 1216.017,3204.414C1216.723,3204.034 1217.265,3203.383 1217.645,3202.461C1217.943,3201.81 1218.093,3200.101 1218.093,3197.334L1218.093,3161.038C1218.093,3158.543 1218.025,3157.01 1217.889,3156.44C1217.618,3155.491 1217.116,3154.758 1216.384,3154.243C1215.353,3153.483 1213.942,3153.104 1212.152,3153.104L1210.321,3153.104L1210.321,3151.598L1256.504,3151.598L1256.504,3167.915L1254.958,3167.915C1254.171,3163.927 1253.066,3161.065 1251.642,3159.329C1250.217,3157.593 1248.203,3156.318 1245.599,3155.504C1244.08,3155.016 1241.232,3154.772 1237.054,3154.772L1231.358,3154.772Z" style="fill:rgb(143,124,116);fill-rule:nonzero;"/>
                    </g>
                    <g transform="matrix(1.684738,0,0,1.684738,841.857899,-2896.243229)">
                        <path d="M1284.987,3151.598L1312.209,3185.819L1312.209,3162.096C1312.209,3158.787 1311.734,3156.549 1310.785,3155.382C1309.483,3153.809 1307.299,3153.049 1304.234,3153.104L1304.234,3151.598L1322.463,3151.598L1322.463,3153.104C1320.13,3153.402 1318.563,3153.789 1317.763,3154.263C1316.963,3154.738 1316.339,3155.511 1315.891,3156.583C1315.444,3157.654 1315.22,3159.492 1315.22,3162.096L1315.22,3208.035L1313.836,3208.035L1276.524,3162.096L1276.524,3197.171C1276.524,3200.345 1277.249,3202.488 1278.7,3203.6C1280.152,3204.712 1281.813,3205.268 1283.685,3205.268L1284.987,3205.268L1284.987,3206.774L1265.415,3206.774L1265.415,3205.268C1268.453,3205.241 1270.569,3204.617 1271.763,3203.397C1272.956,3202.176 1273.553,3200.101 1273.553,3197.171L1273.553,3158.231L1272.373,3156.766C1271.207,3155.301 1270.176,3154.338 1269.281,3153.877C1268.386,3153.416 1267.097,3153.158 1265.415,3153.104L1265.415,3151.598L1284.987,3151.598Z" style="fill:rgb(143,124,116);fill-rule:nonzero;"/>
                    </g>
                    <g transform="matrix(1.684738,0,0,1.684738,841.857899,-2896.243229)">
                        <path d="M1376.987,3151.598L1376.987,3166.531L1375.523,3166.531C1374.655,3163.086 1373.692,3160.611 1372.634,3159.105C1371.576,3157.6 1370.124,3156.4 1368.28,3155.504C1367.249,3155.016 1365.445,3154.772 1362.868,3154.772L1358.758,3154.772L1358.758,3197.334C1358.758,3200.155 1358.914,3201.918 1359.226,3202.624C1359.538,3203.329 1360.149,3203.946 1361.057,3204.475C1361.966,3205.004 1363.207,3205.268 1364.78,3205.268L1366.611,3205.268L1366.611,3206.774L1337.721,3206.774L1337.721,3205.268L1339.553,3205.268C1341.153,3205.268 1342.442,3204.984 1343.418,3204.414C1344.123,3204.034 1344.68,3203.383 1345.086,3202.461C1345.385,3201.81 1345.534,3200.101 1345.534,3197.334L1345.534,3154.772L1341.546,3154.772C1337.83,3154.772 1335.131,3155.559 1333.449,3157.132C1331.089,3159.329 1329.597,3162.462 1328.973,3166.531L1327.427,3166.531L1327.427,3151.598L1376.987,3151.598Z" style="fill:rgb(143,124,116);fill-rule:nonzero;"/>
                    </g>
                    <g transform="matrix(1.684738,0,0,1.684738,841.857899,-2896.243229)">
                        <path d="M1419.142,3150.337L1419.59,3168.729L1417.922,3168.729C1417.135,3164.117 1415.202,3160.408 1412.123,3157.6C1409.044,3154.792 1405.715,3153.389 1402.134,3153.389C1399.367,3153.389 1397.177,3154.128 1395.562,3155.606C1393.948,3157.085 1393.141,3158.787 1393.141,3160.713C1393.141,3161.933 1393.426,3163.019 1393.996,3163.968C1394.783,3165.243 1396.044,3166.504 1397.78,3167.752C1399.055,3168.647 1401.998,3170.234 1406.61,3172.513C1413.066,3175.687 1417.42,3178.684 1419.671,3181.505C1421.896,3184.327 1423.008,3187.555 1423.008,3191.19C1423.008,3195.801 1421.211,3199.768 1417.617,3203.091C1414.022,3206.415 1409.458,3208.076 1403.924,3208.076C1402.188,3208.076 1400.547,3207.9 1399.001,3207.547C1397.455,3207.194 1395.515,3206.53 1393.182,3205.553C1391.88,3205.011 1390.809,3204.739 1389.968,3204.739C1389.262,3204.739 1388.516,3205.011 1387.73,3205.553C1386.943,3206.096 1386.305,3206.923 1385.817,3208.035L1384.312,3208.035L1384.312,3187.202L1385.817,3187.202C1387.011,3193.061 1389.31,3197.531 1392.714,3200.609C1396.119,3203.688 1399.787,3205.228 1403.721,3205.228C1406.759,3205.228 1409.18,3204.4 1410.984,3202.746C1412.788,3201.091 1413.69,3199.165 1413.69,3196.968C1413.69,3195.666 1413.344,3194.404 1412.652,3193.183C1411.961,3191.963 1410.909,3190.803 1409.499,3189.704C1408.088,3188.606 1405.593,3187.175 1402.012,3185.412C1396.993,3182.943 1393.386,3180.841 1391.188,3179.105C1388.991,3177.369 1387.302,3175.429 1386.122,3173.286C1384.942,3171.143 1384.352,3168.783 1384.352,3166.206C1384.352,3161.811 1385.966,3158.068 1389.194,3154.975C1392.423,3151.883 1396.492,3150.337 1401.402,3150.337C1403.192,3150.337 1404.928,3150.554 1406.61,3150.988C1407.885,3151.313 1409.438,3151.917 1411.269,3152.799C1413.1,3153.68 1414.382,3154.121 1415.114,3154.121C1415.819,3154.121 1416.375,3153.904 1416.782,3153.47C1417.189,3153.036 1417.569,3151.991 1417.922,3150.337L1419.142,3150.337Z" style="fill:rgb(143,124,116);fill-rule:nonzero;"/>
                    </g>
                    <g transform="matrix(1,0,0,1,-1.476354,-595.033302)">
                        <path d="M1818.882,1460.301C2040.323,475.244 2993.271,601.391 3138.006,1460.301" style="fill:none;stroke:rgb(243,222,180);stroke-width:8.06px;"/>
                    </g>
                    <g transform="matrix(1,0,0,1,-1.476354,-595.033302)">
                        <path d="M1316.136,3040.113L1630.383,3040.113" style="fill:none;stroke:rgb(142,123,115);stroke-width:8.06px;"/>
                    </g>
                    <g transform="matrix(1,0,0,1,2021.126916,-595.033302)">
                        <path d="M1316.136,3040.113L1630.383,3040.113" style="fill:none;stroke:rgb(142,123,115);stroke-width:8.06px;"/>
                    </g>
                </g>
            </g>
        </g>
    </g>
</svg>
